<?xml version="1.0" encoding="utf-8"?>
<!-- Generator: Adobe Illustrator 25.3.1, SVG Export Plug-In . SVG Version: 6.00 Build 0)  -->
<svg version="1.1" id="Слой_1" xmlns="http://www.w3.org/2000/svg" xmlns:xlink="http://www.w3.org/1999/xlink" x="0px" y="0px"
	 viewBox="0 0 39.3 25.7" style="enable-background:new 0 0 39.3 25.7;" xml:space="preserve">
<g>
	<path d="M3.4,15h34.4c0.8,0,1.5-0.7,1.5-1.5S38.7,12,37.8,12H3.4c-0.8,0-1.5,0.7-1.5,1.5S2.6,15,3.4,15z" fill="currentColor" />
</g>
<g>
	<path d="M12.5,25.7c0.4,0,0.8-0.2,1.1-0.5c0.6-0.6,0.6-1.5,0-2.1l-10-9.7l10-10.9c0.6-0.6,0.5-1.6-0.1-2.1
		c-0.6-0.6-1.6-0.5-2.1,0.1l-11,12c-0.5,0.6-0.5,1.5,0.1,2.1l11,10.7C11.7,25.6,12.1,25.7,12.5,25.7z" fill="currentColor" />
</g>
</svg>
