<svg xmlns:dc="http://purl.org/dc/elements/1.1/" xmlns:cc="http://creativecommons.org/ns#" xmlns:rdf="http://www.w3.org/1999/02/22-rdf-syntax-ns#" xmlns:svg="http://www.w3.org/2000/svg" xmlns="http://www.w3.org/2000/svg" xmlns:sodipodi="http://sodipodi.sourceforge.net/DTD/sodipodi-0.dtd" xmlns:inkscape="http://www.inkscape.org/namespaces/inkscape" version="1.1" x="0px" y="0px" viewBox="0 0 100 125"><g transform="translate(0,-952.36218)"><path style="text-indent:0;text-transform:none;direction:ltr;block-progression:tb;baseline-shift:baseline;color:#000000;enable-background:accumulate;" d="m 67.625,957.48844 c 11.6384,7.2339 19.375,20.1716 19.375,34.875 0,22.29396 -17.8345,40.43176 -40,40.96886 l 0,5.0312 11,0 c 0.5448,0.011 0.8023,0.3125 0.9688,0.7188 l 2,7 c 0.1748,0.5966 -0.3472,1.2868 -0.9688,1.2812 l -28,0 c -0.6216,0.01 -1.1436,-0.6846 -0.9688,-1.2812 l 2,-7 c 0.1214,-0.4142 0.5372,-0.7227 0.9688,-0.7188 l 11,0 0,-5.0312 c -5.468,-0.1329 -10.67,-1.3357 -15.4062,-3.4063 -0.4862,-0.2103 -0.7355,-0.846 -0.5219,-1.3308 0.2136,-0.4848 0.851,-0.7298 1.3343,-0.5129 4.7801,2.0896 10.0427,3.2812 15.5938,3.2812 21.551,0 39,-17.4491 39,-39.00006 0,-14.0018 -7.3671,-26.2754 -18.4375,-33.1562 -0.3924,-0.216 -0.602,-0.7178 -0.4799,-1.1488 0.3374,-0.8987 1.1196,-0.7307 1.5424,-0.57 z M 46,959.36344 c 18.2135,0 33,14.7864 33,33 0,18.21356 -14.7865,33.00006 -33,33.00006 -18.2136,0 -33,-14.7865 -33,-33.00006 0,-13.6108 8.257,-25.3011 20.0312,-30.3438 0.055,-0.082 0.099,-0.1685 0.1563,-0.25 l 0.1563,0.125 c 3.8989,-1.6227 8.1724,-2.5312 12.6562,-2.5312 z m 0,2 c -4.1191,0 -8.0308,0.8255 -11.625,2.2812 -2.4494,3.9908 -2.3177,8.094 -2.375,10.7188 -0.068,3.1096 1.3333,5.0212 2.8438,7.4688 0.9459,1.533 2.4725,2.8352 3.9062,4.0937 1.4337,1.2585 2.8636,2.4434 3.2188,4.2187 0.5118,2.5599 0.8908,5.5268 1.75,7.7188 0.4295,1.096 0.9871,1.9768 1.6562,2.56256 0.6691,0.5857 1.4481,0.9398 2.625,0.9375 0.959,0 1.6531,-0.3222 2.3125,-0.9062 0.6594,-0.58416 1.2315,-1.47956 1.7813,-2.56266 1.3503,-2.6611 1.5779,-4.9078 1.5937,-7.25 0.016,-2.3421 -0.188,-4.7892 0.3437,-7.5 0.5505,-2.8052 2.2287,-4.5866 3.5938,-6.125 1.3651,-1.5383 2.375,-2.7362 2.375,-4.6562 0,-4.3904 -1.1337,-7.2567 -3.625,-9.2188 -3.2456,-1.1519 -6.7322,-1.7812 -10.375,-1.7812 z m 14.4062,3.5625 c 1.08,2.0499 1.5938,4.5366 1.5938,7.4375 0,2.6514 -1.4863,4.4351 -2.875,6 -1.3887,1.5649 -2.7227,2.9774 -3.1562,5.1875 -0.4662,2.3758 -0.2646,4.6222 -0.2813,7.0937 -0.017,2.4716 -0.26,5.1586 -1.7813,8.1563 -0.6102,1.20286 -1.3291,2.31296 -2.2812,3.15636 -0.9521,0.8433 -2.1907,1.4033 -3.625,1.4062 -1.598,0 -2.93,-0.5555 -3.9375,-1.4375 -1.0075,-0.882 -1.6857,-2.06346 -2.1875,-3.34376 -1.0037,-2.5608 -1.3556,-5.5911 -1.8438,-8.0313 -0.1624,-0.8122 -1.1877,-1.8908 -2.5937,-3.125 -1.406,-1.2342 -3.1035,-2.6542 -4.2813,-4.5625 -1.4571,-2.3616 -3.2384,-4.7854 -3.1562,-8.5312 0.044,-2.046 -0.081,-5.6069 1.4375,-9.3438 -9.7844,5.2102 -16.4375,15.507 -16.4375,27.375 0,4.6251 1.0311,8.99696 2.8438,12.93746 2.2638,-1.3639 5.6667,-1.7298 9.125,-1.9374 0.021,-6e-4 0.042,-6e-4 0.062,0 4.839,0 8.167,1.5942 9.4376,4.2187 1.2626,2.6085 0.1831,5.8205 -2.7188,8.4374 l 0.031,0.031 c -0.019,0.019 -0.044,0.013 -0.062,0.031 -1.5059,1.4888 -2.8257,2.3436 -3.8126,2.7813 4.6871,2.8466 10.2044,4.5 16.0938,4.5 17.1327,0 31,-13.8674 31,-31.00006 0,-11.9274 -6.729,-22.2526 -16.5938,-27.4375 z m -33.3124,40.43746 c -0.022,0 -0.041,0 -0.063,0 -3.4226,0.2099 -6.7928,0.769 -8.3124,1.7188 2.2655,4.1953 5.4496,7.814 9.3124,10.5625 l 0,-0.2812 c 0,0 0.2421,0.013 1,-0.3125 0.758,-0.3251 1.9005,-0.9991 3.3126,-2.4064 0.02,-0.011 0.041,-0.021 0.062,-0.031 2.531,-2.258 3.051,-4.5016 2.25,-6.1562 -0.7966,-1.646 -3.2089,-3.0786 -7.5624,-3.0938 z m 30.1562,35.0001 -22.5,0 -1.4375,5 25.375,0 z" fill="#000000" fill-opacity="1" stroke="none" marker="none" visibility="visible" display="inline" overflow="visible"/></g><text x="0" y="115" fill="#000000" font-size="5px" font-weight="bold" font-family="'Helvetica Neue', Helvetica, Arial-Unicode, Arial, Sans-serif"></text><text x="0" y="120" fill="#000000" font-size="5px" font-weight="bold" font-family="'Helvetica Neue', Helvetica, Arial-Unicode, Arial, Sans-serif"></text></svg>