<?xml version="1.0" encoding="utf-8"?>
<!-- Generator: Adobe Illustrator 25.3.1, SVG Export Plug-In . SVG Version: 6.00 Build 0)  -->
<svg version="1.1" id="Слой_1" xmlns="http://www.w3.org/2000/svg" xmlns:xlink="http://www.w3.org/1999/xlink" x="0px" y="0px"
	 viewBox="0 0 85.3 99.9" style="enable-background:new 0 0 85.3 99.9;" xml:space="preserve">
<path d="M85.2,98.9l-1.9-5.7c-1.6-4.9-5.8-8.6-10.9-9.7l-9.8-2l-5.9-4.2l-2.1-2.5l0,0c10.8-2,18.1-10.1,18.1-20.7v-0.5h0.5
	c3.4,0,6.1-2.8,6.1-6.1v-8.4c0-3.4-2.8-6.1-6.1-6.1h-0.5v-3c0-16.6-13.5-30-30-30s-30,13.5-30,30v3h-0.5c-3.4,0-6.1,2.8-6.1,6.1v8.4
	c0,3.4,2.8,6.1,6.1,6.1h0.5c0.1,0.7,0.7,1.3,1.5,1.3s1.5-0.7,1.5-1.5V29.9c0-14.9,12.1-27,27-27s27,12.1,27,27v24.2
	c0,9.2-6.2,16-15.7,17.7V66c0.6-0.5,1.2-1,1.7-1.5c6.1-5.5,9.4-12.4,9.4-16v-4c0.9,0.1,1.8,0.1,2.7,0.2l0,0c0.4,0,0.7-0.3,0.8-0.7
	c0-0.4-0.3-0.8-0.7-0.8c-8.2-0.3-16.1-3-22.8-7.8S33.4,23.9,30.6,16.2c-0.1-0.4-0.6-0.6-1-0.5s-0.6,0.6-0.5,1
	c0.3,0.9,0.7,1.8,1.1,2.7c-5.9,2-10,7.6-10,13.9v15.1c0,4,3,9.4,8.2,14.7c0.8,0.8,1.6,1.6,2.6,2.5V75l-2.6,2.3l-6,4.2l-9.8,2
	c-5.1,1.1-9.2,4.8-10.9,9.7L0,98.9c-0.1,0.4,0.1,0.8,0.5,1c0.1,0,0.2,0,0.2,0c0.3,0,0.6-0.2,0.7-0.5l1.9-5.7C4.7,89.3,8.5,86,13,85
	l10.1-2.1l5.8-4l13.3,11.4c0.1,0.1,0.3,0.2,0.5,0.2s0.4-0.1,0.5-0.2l13.2-11.4l5.8,4L72.3,85c4.5,0.9,8.3,4.3,9.7,8.7l1.9,5.7
	c0.1,0.3,0.4,0.5,0.7,0.5c0.1,0,0.2,0,0.2,0C85.2,99.7,85.4,99.3,85.2,98.9z M7.6,47.4V39c0-2.5,2.1-4.6,4.6-4.6h0.5V52h-0.5
	C9.6,52.1,7.6,50,7.6,47.4z M73.2,34.5c2.5,0,4.6,2.1,4.6,4.6v8.4c0,2.5-2.1,4.6-4.6,4.6h-0.5V34.5H73.2z M29.5,62
	c-4.9-4.9-7.8-10-7.8-13.6V33.3c0-5.7,3.7-10.8,9.1-12.6c3.1,6.3,7.6,11.7,13.3,15.8c5.8,4.2,12.4,6.8,19.4,7.8v4.1
	c0,3.3-3.3,9.8-8.9,14.9c-2.8,2.5-6.7,6-12,6C36.8,69.4,32.6,65.1,29.5,62z M31,77v1.6l-0.9-0.7L31,77z M42.6,88.6l-10.1-8.7v-13
	c2.7,2.1,6,4,10.2,4l0,0c4,0,7.2-1.7,9.8-3.7V72c-1,0.1-2,0.2-3.1,0.2h-6.8c-0.8,0-1.5,0.7-1.5,1.5c0,0.6,0.4,1.2,0.9,1.4
	c0.3,1.3,1.3,2.2,2.6,2.2h2.9c1.2,0,2.2-0.9,2.5-2.1c0.8,0,1.7-0.1,2.5-0.2v5.1L42.6,88.6z M48.4,75.3c-0.2,0.3-0.5,0.6-0.9,0.6
	h-2.9c-0.4,0-0.7-0.2-0.9-0.6H48.4z M54,78.9v-2.4l1.2,1.4L54,78.9z" fill="currentColor" />
</svg>
