<?xml version="1.0" encoding="utf-8"?>
<!-- Generator: Adobe Illustrator 26.2.1, SVG Export Plug-In . SVG Version: 6.00 Build 0)  -->
<svg version="1.1" id="Слой_1" xmlns="http://www.w3.org/2000/svg" xmlns:xlink="http://www.w3.org/1999/xlink" x="0px" y="0px"
	 viewBox="0 0 542.5 542.5" style="enable-background:new 0 0 542.5 542.5;" xml:space="preserve">
<style type="text/css">
	.st0{fill:#455FED;}
</style>
<g>
	<path class="st0" d="M201.6,347.7c-43.9-3.2-86.7-26.6-127.2-69.4v-99.6l141,83c2.1,1.2,4.7,1.2,6.9,0l140.9-83v27h8.8v-32.2
		l62.5-36.8c2-1.1,3.2-3.2,3.2-5.4s-1.2-4.3-3.2-5.4L222.2,0.9c-2.1-1.2-4.7-1.2-6.9,0L3.2,125.8c-2,1.1-3.2,3.2-3.2,5.4
		s1.2,4.3,3.2,5.4l5.6,3.3v92.7C5,234,2,237,0.7,240.8s-0.8,8,1.4,11.3C1.7,256.5,0,274.8,0,301.9v26.2c0,1.2,0.5,2.3,1.3,3.1
		s1.9,1.3,3.1,1.3h17.5c1.2,0,2.3-0.5,3.1-1.3s1.3-1.9,1.3-3.1v-26.2c0-27.1-1.7-45.4-2.1-49.8c2.2-3.4,2.7-7.5,1.4-11.3
		c-1.3-3.8-4.3-6.8-8-8.1v-87.6l48.1,28.3V280c0,1.1,0.4,2.2,1.2,3c42.4,45.3,87.6,70,134.1,73.4L201.6,347.7z M17.5,323.8H8.7
		v-21.9c0-20.5,1-36.1,1.6-44c1.8,0.4,3.7,0.4,5.5,0c0.6,7.9,1.6,23.6,1.6,44L17.5,323.8z M13.1,249.4c-1.8,0-3.4-1.1-4-2.7
		c-0.7-1.6-0.3-3.5,0.9-4.8s3.1-1.6,4.8-0.9c1.6,0.7,2.7,2.3,2.7,4c0,1.2-0.5,2.3-1.3,3.1S14.3,249.4,13.1,249.4L13.1,249.4z
		 M11.2,131.3L218.7,9.1l207.6,122.2L218.7,253.4L11.2,131.3z"/>
	<path class="st0" d="M517.1,161.2c-24.6-26.7-55.1-37.5-69.4-24.4c-1.7,1.6-3.2,3.6-4.2,5.7c-13.2,17.9-63.5,83-157.4,168.3
		c-109.9,99.8-172.2,129.8-172.9,130.1c-0.4,0.2-0.8,0.4-1.1,0.7c-4.5,4.4-7.1,10.5-7.1,16.8c-0.7,15.6,9,36.4,25.4,54.2
		c17.5,19,38,29.9,53.5,29.9c5.8,0.2,11.5-1.7,15.9-5.5c0.3-0.3,0.6-0.6,0.8-1c0.3-0.6,35.8-59.4,145.8-159.4
		c93.5-84.9,163.2-129,182.6-140.6l0,0c2.3-0.9,4.4-2.1,6.3-3.8c4.5-4.4,7.1-10.5,7.1-16.8C543.1,199.7,533.4,179,517.1,161.2
		L517.1,161.2z M474.9,142.1L474.9,142.1c-2.2,1.3-4,3.2-5.4,5.4c-2.9,5-7.3,19.1,15,43.4c11.8,12.9,19.9,16.2,25,16.2
		c2.4,0.1,4.7-0.8,6.5-2.4c6.2-5.7,3.2-18.7-6.8-29.6l-6.4,5.9c7.8,8.5,8.5,16.1,7.3,17.2c-0.6,0.5-6.6,0.4-19.2-13.3
		c-15-16.3-16.9-28-13.9-33l0,0c2.7-3.5,7.4-4.8,11.6-3.1l0,0c8.1,5.1,15.5,11.3,22,18.4c14.6,15.9,23.7,34.7,23.1,47.9
		c0.1,3.9-1.4,7.6-4.1,10.5c-0.8,0.4-2.3,1.3-4.6,2.7c-11.4,3.7-33-4.8-52.7-26.3c-14.6-15.9-23.7-34.7-23.1-47.9
		c0.1-2.3,0.6-4.5,1.4-6.6c1.6-2.1,2.6-3.6,3.1-4.3l0,0c2.8-2.2,6.3-3.3,9.9-3.1C467.5,140.1,471.3,140.8,474.9,142.1L474.9,142.1z
		 M440.9,160.3c1.8,14.6,10.9,32.1,25,47.5c14.5,15.8,31.2,26,45.3,29l0,0c-46.5,30.3-90.8,63.7-132.8,100
		c-21.5-6.2-45.3-33.2-48.7-54.9C369.5,243.9,406.6,203.3,440.9,160.3L440.9,160.3z M193.5,530.9c-9.6,7.8-34.3,0.1-56.7-24.2
		c-14.6-15.9-23.7-34.7-23.1-47.9l0,0c-0.1-3.8,1.3-7.5,3.8-10.3c6.8-3.3,59.8-30.5,152.6-111.8l0,0c8.1,23.8,25.5,43.2,48.2,54
		C229.2,474.7,197.4,524.4,193.5,530.9L193.5,530.9z M340.6,370c-5.2,4.7-10.2,9.3-15.1,13.9c-21-6.5-44-32.5-47.9-53.8
		c4.7-4.2,9.4-8.4,14.3-12.8c10.7-9.7,20.8-19.1,30.4-28.3l0,0c8,24,25.5,43.6,48.4,54.4C361,351.7,351,360.6,340.6,370L340.6,370z"
		/>
</g>
<polygon class="st0" points="218.8,3.6 4.4,131.2 218.8,257.9 435.1,130.7 "/>
<path class="st0" d="M271.2,327.6c0,0,19.7,52.9,52.9,61.3c17.6-14.7,54.1-47.6,54.1-47.6S329,318.2,324.7,280
	C310.7,293.8,271.2,327.6,271.2,327.6z"/>
</svg>
