<?xml version="1.0" encoding="utf-8"?>
<!-- Generator: Adobe Illustrator 26.2.1, SVG Export Plug-In . SVG Version: 6.00 Build 0)  -->
<svg version="1.1" id="Слой_1" xmlns="http://www.w3.org/2000/svg" xmlns:xlink="http://www.w3.org/1999/xlink" x="0px" y="0px"
	 viewBox="0 0 1075.2 1098.7" style="enable-background:new 0 0 1075.2 1098.7;" xml:space="preserve">
<style type="text/css">
	.st0{fill:#455FED;}
</style>
<g>
	<path class="st0" d="M999.6,856.3h-4.8c16.8-14.4,26.4-34.8,26.4-57.6v-99.6c49.2-3.6,54-42,54-70.8v-96c0-42-33.6-74.4-75.6-74.4
		h-176c-0.5,5.7-2.6,11-5.9,15.6h81.2v110.4c-1.2,4.8,2.4,9.6,8.4,9.6c4.8,1.2,9.6-2.4,9.6-8.4V472.3h84c31.2,0,57.6,25.2,57.6,57.6
		v98.4h-1.2c0,37.2-9.6,50.4-37.2,50.4h-2.4c-10.8-30-38.4-50.4-70.8-50.4H68.4c1.2-1.2,1.2-2.4,1.2-4.8v-92.4
		c0-31.2,25.2-57.6,57.6-57.6H198v110.4c-1.2,4.8,2.4,9.6,8.4,9.6c4.8,1.2,9.6-2.4,9.6-8.4V473.5h103.9c-4.3-4.2-7.4-9.6-9.1-15.6
		H127.2c-40.8,0-74.4,33.6-74.4,74.4v92.4c0,2.4,1.2,4.8,3.6,7.2C22.8,640.3,0,670.3,0,705.1v92.4c0,42,33.6,74.4,74.4,75.6h4.8
		c-16.8,14.4-26.4,34.8-26.4,57.6v92.4c0,42,33.6,74.4,74.4,75.6h872.4c42,0,75.6-33.6,75.6-75.6v-92.4
		C1075.2,888.7,1041.6,856.3,999.6,856.3z M807.6,646.3c-1.2,1.2-1.2,2.4-1.2,4.8v310.8l-27.6-38.4c-1.2-2.4-4.8-3.6-7.2-3.6
		s-6,1.2-7.2,3.6l-32.4,42V651.1c0-1.2-1.2-3.6-1.2-4.8H807.6z M1057.2,1020.7c0,31.2-25.2,57.6-57.6,57.6H308.4V901.9
		c-1.2-4.8-4.8-8.4-9.6-8.4c-3.6,0-7.2,3.6-8.4,8.4v176.4h-61.2V901.9c-1.2-4.8-4.8-8.4-9.6-8.4c-3.6,0-7.2,3.6-8.4,8.4v176.4h-84
		c-31.2,0-57.6-25.2-57.6-57.6v-92.4c0-31.2,25.2-57.6,57.6-57.6h542.4c4.8,0,8.4-3.6,8.4-8.4c0-4.8-3.6-8.4-8.4-8.4H74.4
		c-31.2,0-57.6-25.2-57.6-57.6v-92.4c0-31.2,25.2-57.6,57.6-57.6h640.8c-1.2,1.2-1.2,2.4-1.2,4.8v340.8c0,3.6,2.4,7.2,6,8.4h2.4
		c2.4,0,6-1.2,7.2-3.6l40.8-52.8l37.2,50.4c3.6,3.6,8.4,4.8,13.2,1.2c2.4-1.2,3.6-4.8,3.6-7.2V651.1c0-1.2,0-2.4-1.2-4.8H948
		c31.2,0,57.6,25.2,57.6,57.6v92.4h-1.2c0,31.2-25.2,57.6-57.6,57.6h-92.4c-4.8,0-8.4,3.6-8.4,8.4c0,4.8,3.6,8.4,8.4,8.4h145.2
		c31.2,0,57.6,25.2,57.6,57.6V1020.7z"/>
	<path class="st0" d="M326.4,667.9c-4.8,0-8.4,3.6-8.4,8.4v105.6c-1.2,4.8,2.4,9.6,8.4,9.6c4.8,1.2,9.6-2.4,9.6-8.4v-2.4V675.1
		C334.8,672.7,331.2,667.9,326.4,667.9L326.4,667.9z"/>
	<path class="st0" d="M392.4,667.9c-4.8,0-8.4,3.6-8.4,8.4v105.6c-1.2,4.8,2.4,9.6,8.4,9.6c4.8,1.2,9.6-2.4,9.6-8.4v-2.4V675.1
		C400.8,672.7,397.2,667.9,392.4,667.9L392.4,667.9z"/>
	<path class="st0" d="M471.6,667.9c-4.8,0-8.4,3.6-8.4,8.4v105.6c-1.2,4.8,2.4,9.6,8.4,9.6c4.8,1.2,9.6-2.4,9.6-8.4v-2.4V675.1
		C480,672.7,476.4,667.9,471.6,667.9L471.6,667.9z"/>
</g>
<g>
	<path class="st0" d="M966.6,142.7L966.6,142.7L580.9,0.6c-1.7-0.8-3.3-0.8-5,0l-389,147.1c-2.5,0.8-4.2,3.3-5,6.7
		c0,2.5,1.7,5.8,4.2,6.7l385.7,160.3c0.8,0,1.7,0.8,2.5,0.8s1.7,0,2.5-0.8l127.2-54c3.3-1.7,5-5.8,3.3-9.1c-1.7-3.3-5.8-5-9.1-4.2
		l-124.7,53.2L207.7,154.4L578.4,15.6L945,150.2l-184.5,76.5l-136.3-54c1.7-3.3,3.3-7.5,3.3-11.6c0-19.9-23.3-35.7-53.2-35.7
		s-53.2,15.8-53.2,35.7s23.3,35.7,53.2,35.7c15,0.8,29.1-4.2,40.7-12.5l138,54.9l4.2,191.7c-20.8,4.2-34.9,24.1-30.8,44.9
		c4.2,20.8,24.1,34.9,44.9,30.8s34.9-24.1,30.8-44.9c-0.3-1.3-0.6-2.6-1-3.8c9.1-11.1,17.3-23,24.3-35.7c0.8-0.8,0.8-1.7,0.8-3.3
		V330c0.8-4.2-2.5-7.5-5.8-8.3c-4.2-0.8-7.5,2.5-8.3,5.8v88.9c-5.7,9.3-11.9,18.4-18.7,27.2c-5.5-6.6-13.1-11.2-22-12.6l-0.2,14.2
		c5.4,1.5,10.1,4.9,13.3,9.4c-0.2,0.2-0.3,0.4-0.5,0.5l0,0c0.2,0.2,0.3,0.5,0.5,0.7c0.1,0.2,0.3,0.5,0.4,0.7
		c0.1,0.3,0.3,0.5,0.4,0.8c0.1,0.3,0.3,0.5,0.4,0.8c0.1,0.3,0.2,0.5,0.3,0.8c0.2,0.5,0.4,1,0.5,1.4c0.1,0.2,0.1,0.5,0.2,0.7
		c0.1,0.3,0.2,0.6,0.3,1c0.1,0.3,0.1,0.5,0.2,0.8c0.1,0.3,0.1,0.7,0.2,1c0,0.3,0.1,0.5,0.1,0.8c0.1,0.5,0.1,1.1,0.1,1.7l0,0
		c0.4,1.4,0.6,2.9,0.7,4.4c0,0.6,0,1.2,0,1.8c0.1-0.1,0.2-0.2,0.2-0.3c-0.1,0.9-0.3,1.7-0.6,2.6c-0.6,3.1-2.1,5.9-4.2,8.3
		c-4.4,5.7-11.3,9.4-19.1,9.4c-13.3,0-24.1-10.8-24.1-24.1s10.8-24.1,24.1-24.1c1.9,0,3.7,0.2,5.5,0.6L768,295l183.6-76.6
		c2.5-0.8,4.2-3.3,4.2-6.7v-10.8c-0.8-4.2-4.2-6.7-8.3-5.8c-3.3,0-5.8,3.3-5.8,5.8v6.7L768,279.9l-0.8-39.9l200.3-83.9
		c2.5-0.8,4.2-4.2,4.2-6.7C971.6,146.1,969.1,143.6,966.6,142.7z M574.3,182.6c-20.8,0-39.1-10-39.1-21.6s18.3-21.6,39.1-21.6
		s39.1,10.8,39.1,21.6C613.3,171.8,595,182.6,574.3,182.6z"/>
	<path class="st0" d="M574.3,374.6c0.8,0,1.7,0,2.5-0.8l131.3-54.9c3.3-1.7,5-5.8,3.3-10c-1.7-3.3-5-4.2-8.3-3.3l-128.8,53.2
		l-364-148V200c-0.8-4.2-4.2-6.7-8.3-5.8c-3.3,0-5.8,3.3-5.8,5.8v15c0,2.5,1.7,5.8,4.2,6.7L571.9,373
		C572.6,374.6,573.4,374.6,574.3,374.6L574.3,374.6z"/>
	<path class="st0" d="M767.1,526.4c-4.2,0-6.7,3.3-6.7,6.7V588c0,4.2,3.3,6.7,6.7,7.5c4.2,0,6.7-3.3,7.5-7.5v-54.9
		C773.7,528.9,770.4,526.4,767.1,526.4L767.1,526.4z"/>
	<path class="st0" d="M743,517.2c-3.3-0.8-7.5,0.8-9.1,4.2l-16.6,52.4c-0.8,3.3,0.8,7.5,4.2,8.3h2.5c3.3,0,5.8-1.7,6.7-5l16.6-52.4
		C748,522.2,746.3,518.1,743,517.2L743,517.2z"/>
	<path class="st0" d="M799.5,521.4c-1.7-3.3-5.8-5-9.1-3.3s-5,4.2-4.2,7.5l16.6,52.4c0.8,3.3,3.3,5,6.7,5h2.5c3.3-0.8,5.8-5,5-8.3
		L799.5,521.4z"/>
	<path class="st0" d="M716.4,517.6c-1.7-3.3-5.8-5-9.1-4.2c-41.6,15.8-84.8,24.1-128.8,25.8V423.7c0-4.2-3.3-7.5-7.5-7.5
		s-6.7,3.3-6.7,6.7v115.5c-44.9-0.8-89.8-10-131.3-25.8c-58.2-24.1-98.1-86.4-104.7-97.2v-85.6c0.8-4.2-2.5-7.5-5.8-8.3
		c-4.2-0.8-7.5,2.5-8.3,5.8v1.7v88.9c0,0.8,0,2.5,0.8,3.3c1.7,3.3,44.1,77.3,112.2,104.7c44.9,17.5,93.1,26.6,142.1,27.4h1.7
		c49,0,96.4-9.1,142.1-26.6C716.4,525.9,718.1,521.7,716.4,517.6L716.4,517.6z"/>
</g>
<circle class="st0" cx="763.5" cy="465.9" r="35.8"/>
<path class="st0" d="M77,637.3c0,0-64,8.1-66,55.1s0,132,0,132l58,43l82-5.1l572.4,9.2L723,632.4L77,637.3z"/>
<path class="st0" d="M815.7,632.4l0.4,238.3H956c0,0,46.8-13.5,56-59.9s0-122.4,0-122.4s-9-50.2-44-51.1S815.7,632.4,815.7,632.4z"
	/>
<polygon class="st0" points="196.1,157.3 196.1,215 574.3,374.6 953.6,217.2 950.6,147.5 581.7,301.7 "/>
</svg>
