<?xml version="1.0" encoding="utf-8"?>
<!-- Generator: Adobe Illustrator 26.2.1, SVG Export Plug-In . SVG Version: 6.00 Build 0)  -->
<svg version="1.1" id="Слой_1" xmlns="http://www.w3.org/2000/svg" xmlns:xlink="http://www.w3.org/1999/xlink" x="0px" y="0px"
	 viewBox="0 0 669.4 589.4" style="enable-background:new 0 0 669.4 589.4;" xml:space="preserve">
<style type="text/css">
	.st0{fill:#455FED;}
	.st1{display:none;fill:#FFFFFF;}
</style>
<g>
	<path class="st0" d="M338.1,578.4c-66.3-0.1-123.8-0.7-128.4-0.8c-2.3-0.3-22.3-3.2-44.8-16.5c-26.3-15.7-45.6-38.8-57.5-69.1
		c-2.4-6-4.4-12.3-6.2-18.8v-85.9c0-0.7-0.3-17.6-12.3-36C78.2,335.2,56.2,315,11,308.1c0.3-40.6,0.1-123.6,0-145.8
		c11.5,0.5,41.8,3.5,86.2,20.7c16.9,6.6,37,15.7,59.8,28.3c-1-4.2-1.1-8.5-0.4-12.8c-19.1-10.2-37.9-19-56.3-26.1
		C41,149.6,6.6,151.3,5.2,151.3c-2.9,0.2-5.2,2.6-5.2,5.5c0,1.1,0.5,111.9,0,156c0,2.8,2,5.1,4.8,5.5c35.2,4.4,60.3,17.4,74.4,38.5
		c10.5,15.7,10.9,30.4,10.9,30.5v83c0,0.5,1,7.9,1,8c14.6,51.6,45.2,78.8,68.5,92.5c25.8,15.2,48.1,17.7,49,17.8c0.2,0,0.3,0,0.5,0
		c1,0,61.2,0.7,130.7,0.8l-1.8-10.8C338.2,578.4,338.1,578.4,338.1,578.4z"/>
	<path class="st0" d="M667.7,152.8c-1.1-1-2.6-1.6-4.1-1.5c-40.2,2.8-82.4,14.7-125.5,35.3c-8.9,4.3-17.9,8.9-26.9,13.9
		c0.1,1,0.2,2.1,0.1,3.1c0,3.3-0.2,6.5-0.5,9.8c43.4-24.8,94.3-45.6,147.5-50.6v143.5c-8.6,0.6-26.1,2.9-43.9,10.8
		c-23,10.3-50.3,32.3-50.3,78.8v71.6c-0.1,1.6-1.5,23.8-14.7,47.9c-18,33-48.4,53.9-90.5,62.2c-35.1,0.6-76.1,0.8-114.7,0.8
		c-0.2,3.8-1.1,7.5-2.6,11c2.7,0,5.4,0,8.1,0c37.1,0,76.2-0.2,109.8-0.8c0.3,0,0.6,0,1-0.1c57.1-11.1,85.2-43.3,98.7-68.3
		c10.4-19.2,14-37,15.2-46.1c0.4-0.8,0.6-1.6,0.6-2.5v-75.7c0-32.5,14.7-55.6,43.6-68.7c22.2-10,44.9-10.2,45.1-10.2
		c3,0,5.5-2.5,5.5-5.5V156.8C669.4,155.3,668.8,153.8,667.7,152.8z"/>
</g>
<g>
	<path class="st0" d="M174.2,162.7c-44.9,0-81.4-36.5-81.4-81.4S129.3,0,174.2,0s81.4,36.5,81.4,81.4S219,162.7,174.2,162.7z
		 M174.2,11c-38.8,0-70.4,31.6-70.4,70.4s31.6,70.4,70.4,70.4s70.4-31.6,70.4-70.4S213,11,174.2,11z"/>
</g>
<g>
	<path class="st0" d="M331.6,162.7c-44.9,0-81.4-36.5-81.4-81.4S286.7,0,331.6,0c44.9,0,81.4,36.5,81.4,81.4
		S376.4,162.7,331.6,162.7z M331.6,11c-38.8,0-70.4,31.6-70.4,70.4s31.6,70.4,70.4,70.4c38.8,0,70.4-31.6,70.4-70.4
		S370.4,11,331.6,11z"/>
</g>
<g>
	<path class="st0" d="M490.8,162.7c-44.9,0-81.4-36.5-81.4-81.4S445.9,0,490.8,0s81.4,36.5,81.4,81.4S535.6,162.7,490.8,162.7z
		 M490.8,11c-38.8,0-70.4,31.6-70.4,70.4s31.6,70.4,70.4,70.4s70.4-31.6,70.4-70.4S529.6,11,490.8,11z"/>
</g>
<path class="st1" d="M508.6,306.7c0,0-71.6-16.8-101,81.1c1.8,91,0,196.1,0,196.1H261.8V392.8c0,0-19.9-93.2-104.2-87.1
	c0-35.1,0-147.4,0-147.4s95.1-15.8,177.1,55.2c20.4-16.3,75.6-68.8,176.2-54.8C511.3,213.4,508.6,306.7,508.6,306.7z"/>
<g>
	<path class="st0" d="M407.6,589.4H262c-3.2,0-5.7-2.6-5.7-5.7V393.4c0,0,0,0,0-0.1c-0.9-3.6-6.2-24.1-19.7-43.6
		c-19.4-28-45.8-41-78.5-38.6c-2,0.2-4-0.8-5.1-2.6c-0.6-0.9-0.8-2-0.8-3l0-147.2c0-2.7,1.9-5,4.6-5.4c1-0.2,25-4,59.5,0.9
		c30.9,4.5,76.1,17.2,118.4,52.5c0.1,0.1,0.2,0.1,0.3,0c0.3-0.2,0.6-0.5,0.9-0.7c23.8-19.6,79.6-65.6,175.6-52.3
		c2.8,0.4,4.9,2.8,5,5.6c0.4,54.3-2.2,147.2-2.3,148.1c0,1.7-0.8,3.2-2.1,4.2c-1.3,1-3,1.4-4.6,1c-0.3-0.1-17-3.7-36.8,3.8
		c-26.5,10.1-45.8,34.5-57.4,72.6c0,0,0,0,0,0.1c1.8,89.9,0,194.3,0,195.4C413.1,587,410.6,589.4,407.6,589.4z M267.5,578.4H402
		c0.1,0,0.2-0.1,0.2-0.2c0.3-23,1.5-110.7-0.1-188.7c0-0.6-0.1-2.2,0.2-3.3c15.3-52.8,44-73,64.9-80.8c14.9-5.6,28.2-5.7,35.8-5
		c0.1,0,0.2-0.1,0.2-0.2c0.6-21.2,2.3-90.5,2.1-136.5c0-0.1-0.1-0.2-0.2-0.2c-88.4-10.6-140.1,32.1-162.4,50.5
		c-1.7,1.4-3.3,2.7-4.6,3.8c-2.1,1.7-5,1.6-7-0.1c-41.2-35.7-85.8-48.5-116-52.9c-24.2-3.5-43.2-2.5-51.7-1.6
		c-0.1,0-0.2,0.1-0.2,0.2v136.4c0,0.1,0.1,0.2,0.2,0.2c33.8-0.6,62.2,14.5,82.5,43.9c15.9,23.2,21.1,46.8,21.3,47.8
		c0.2,0.7,0.1,3.1,0.1,3.5v183C267.3,578.3,267.4,578.4,267.5,578.4z"/>
</g>
<path class="st0" d="M157.2,206.1c0,0-91.1-46.7-146.2-50.2c-6.7,12.9-6.7,12.9-6.7,12.9v140.9c0,0,55.1,7.6,71.6,34.2
	c16.4,26.7,25.3,41.8,19.6,103.1c2.2,40.9,11.6,83.1,52,107.1s48.4,32.4,75.6,30.7s40.4,0.2,40.4,0.2l-2.2-197.6
	c0,0-11.6-71.1-75.1-80c-26.7-6.2-30.2-5.3-30.2-5.3L157.2,206.1z"/>
<circle class="st0" cx="332" cy="81" r="72.7"/>
</svg>
