<?xml version="1.0" encoding="utf-8"?>
<!-- Generator: Adobe Illustrator 26.2.1, SVG Export Plug-In . SVG Version: 6.00 Build 0)  -->
<svg version="1.1" id="Слой_1" xmlns="http://www.w3.org/2000/svg" xmlns:xlink="http://www.w3.org/1999/xlink" x="0px" y="0px"
	 viewBox="0 0 542.5 560" style="enable-background:new 0 0 542.5 560;" xml:space="preserve">
<style type="text/css">
	.st0{fill:#455FED;}
</style>
<g>
	<path class="st0" d="M4.4,52.5c-2.4,0-4.4-2-4.4-4.4C0,21.6,21.6,0,48.1,0c2.4,0,4.4,2,4.4,4.4s-2,4.4-4.4,4.4
		C26.4,8.8,8.8,26.4,8.8,48.1C8.8,50.5,6.8,52.5,4.4,52.5z"/>
	<path class="st0" d="M450.6,490c-2.4,0-4.4-1.9-4.4-4.4V48.1c0-2.4,2-4.4,4.4-4.4s4.4,2,4.4,4.4v437.5C455,488.1,453,490,450.6,490
		L450.6,490z"/>
	<path class="st0" d="M450.6,52.5c-2.4,0-4.4-2-4.4-4.4c0-21.7-17.7-39.4-39.4-39.4c-2.4,0-4.4-2-4.4-4.4s2-4.4,4.4-4.4
		C433.4,0,455,21.6,455,48.1C455,50.5,453,52.5,450.6,52.5z"/>
	<path class="st0" d="M363.1,52.5c-2.4,0-4.4-2-4.4-4.4c0-26.5,21.6-48.1,48.1-48.1c2.4,0,4.4,2,4.4,4.4s-2,4.4-4.4,4.4
		c-21.7,0-39.4,17.7-39.4,39.4C367.5,50.5,365.5,52.5,363.1,52.5L363.1,52.5z"/>
	<path class="st0" d="M494.4,533.7c-26.5,0-48.1-21.6-48.1-48.1c0-2.4,2-4.4,4.4-4.4s4.4,2,4.4,4.4c0,21.7,17.7,39.4,39.4,39.4
		c2.4,0,4.4,2,4.4,4.4C498.7,531.8,496.8,533.7,494.4,533.7z"/>
	<path class="st0" d="M135.6,533.7c-26.5,0-48.1-21.6-48.1-48.1c0-2.4,2-4.4,4.4-4.4s4.4,2,4.4,4.4c0,21.7,17.7,39.4,39.4,39.4
		c2.4,0,4.4,2,4.4,4.4C140,531.8,138,533.7,135.6,533.7z"/>
	<path class="st0" d="M494.4,533.7c-2.4,0-4.4-1.9-4.4-4.4c0-2.4,2-4.4,4.4-4.4c21.7,0,39.4-17.7,39.4-39.4c0-2.4,2-4.4,4.4-4.4
		s4.4,2,4.4,4.4C542.5,512.2,520.9,533.7,494.4,533.7z"/>
	<path class="st0" d="M406.9,8.8H48.1c-2.4,0-4.4-2-4.4-4.4s2-4.4,4.4-4.4h358.7c2.4,0,4.4,2,4.4,4.4S409.3,8.8,406.9,8.8z"/>
	<path class="st0" d="M328.1,533.7H135.6c-2.4,0-4.4-1.9-4.4-4.4c0-2.4,2-4.4,4.4-4.4h192.5c2.4,0,4.4,2,4.4,4.4
		C332.5,531.8,330.5,533.7,328.1,533.7L328.1,533.7z"/>
	<path class="st0" d="M91.9,490c-2.4,0-4.4-1.9-4.4-4.4v-420c0-2.4,2-4.4,4.4-4.4s4.4,2,4.4,4.4v420C96.2,488,94.3,490,91.9,490z"/>
	<path class="st0" d="M363.1,52.5H4.4c-2.4,0-4.4-2-4.4-4.4s2-4.4,4.4-4.4h358.7c2.4,0,4.4,2,4.4,4.4S365.5,52.5,363.1,52.5z"/>
	<path class="st0" d="M538.1,490h-70c-2.4,0-4.4-1.9-4.4-4.4c0-2.4,2-4.4,4.4-4.4h70c2.4,0,4.4,2,4.4,4.4S540.5,490,538.1,490z"/>
	<path class="st0" d="M363.1,498.7c-21.7,0-39.4-17.7-39.4-39.4c0-21.7,17.7-39.4,39.4-39.4c21.7,0,39.4,17.7,39.4,39.4
		C402.5,481.1,384.8,498.7,363.1,498.7z M363.1,428.7c-16.9,0-30.6,13.7-30.6,30.6s13.7,30.6,30.6,30.6s30.6-13.7,30.6-30.6
		C393.7,442.5,380,428.7,363.1,428.7z"/>
	<path class="st0" d="M363.1,472.5c-7.2,0-13.1-5.9-13.1-13.1s5.9-13.1,13.1-13.1s13.1,5.9,13.1,13.1S370.4,472.5,363.1,472.5z
		 M363.1,455c-2.4,0-4.4,2-4.4,4.4s2,4.4,4.4,4.4s4.4-2,4.4-4.4S365.5,455,363.1,455z"/>
	<path class="st0" d="M345.6,560c-2.4,0-4.4-1.9-4.4-4.4v-52.5c0-2.4,2-4.4,4.4-4.4s4.4,2,4.4,4.4v52.5C350,558,348,560,345.6,560z"
		/>
	<path class="st0" d="M380.6,560c-2.4,0-4.4-1.9-4.4-4.4v-52.5c0-2.4,2-4.4,4.4-4.4s4.4,2,4.4,4.4v52.5C385,558,383,560,380.6,560z"
		/>
	<path class="st0" d="M345.6,560c-1.6,0-3.1-0.9-3.9-2.4c-1.1-2.2-0.2-4.8,2-5.9l17.5-8.8c2.2-1.1,4.8-0.2,5.9,2s0.2,4.8-2,5.9
		l-17.5,8.8C347,559.8,346.3,560,345.6,560L345.6,560z"/>
	<path class="st0" d="M380.6,560c-0.7,0-1.3-0.1-2-0.5l-17.5-8.8c-2.2-1.1-3-3.7-2-5.9c1.1-2.2,3.7-3,5.9-2l17.5,8.8
		c2.2,1.1,3,3.7,2,5.9C383.8,559.1,382.2,560,380.6,560L380.6,560z"/>
	<path class="st0" d="M494.4,533.7h-96.2c-2.4,0-4.4-1.9-4.4-4.4c0-2.4,2-4.4,4.4-4.4h96.2c2.4,0,4.4,2,4.4,4.4
		C498.7,531.8,496.8,533.7,494.4,533.7z"/>
	<path class="st0" d="M380.6,148.8H161.9c-2.4,0-4.4-2-4.4-4.4v-26.2c0-2.4,2-4.4,4.4-4.4h218.7c2.4,0,4.4,2,4.4,4.4v26.2
		C385,146.8,383,148.8,380.6,148.8z M166.2,140h210v-17.5h-210L166.2,140z"/>
	<path class="st0" d="M266.9,455h-105c-2.4,0-4.4-1.9-4.4-4.4c0-2.4,2-4.4,4.4-4.4h105c2.4,0,4.4,2,4.4,4.4
		C271.2,453,269.3,455,266.9,455z"/>
	<path class="st0" d="M214.4,472.5h-52.5c-2.4,0-4.4-1.9-4.4-4.4c0-2.4,2-4.4,4.4-4.4h52.5c2.4,0,4.4,2,4.4,4.4
		C218.7,470.5,216.8,472.5,214.4,472.5z"/>
	<path class="st0" d="M380.6,245H161.9c-2.4,0-4.4-2-4.4-4.4s2-4.4,4.4-4.4h218.7c2.4,0,4.4,2,4.4,4.4S383,245,380.6,245z"/>
	<path class="st0" d="M380.6,280H161.9c-2.4,0-4.4-2-4.4-4.4s2-4.4,4.4-4.4h218.7c2.4,0,4.4,2,4.4,4.4S383,280,380.6,280z"/>
	<path class="st0" d="M380.6,315H161.9c-2.4,0-4.4-1.9-4.4-4.4c0-2.4,2-4.4,4.4-4.4h218.7c2.4,0,4.4,2,4.4,4.4
		C385,313.1,383,315,380.6,315z"/>
	<path class="st0" d="M266.9,350h-105c-2.4,0-4.4-1.9-4.4-4.4c0-2.4,2-4.4,4.4-4.4h105c2.4,0,4.4,2,4.4,4.4
		C271.2,348,269.3,350,266.9,350z"/>
	<path class="st0" d="M424.4,507.5c-2.4,0-4.4-1.9-4.4-4.4V39.4c0-2.4,2-4.4,4.4-4.4s4.4,2,4.4,4.4v463.7
		C428.7,505.5,426.8,507.5,424.4,507.5z"/>
	<path class="st0" d="M118.1,498.7c-2.4,0-4.4-1.9-4.4-4.4V65.6c0-2.4,2-4.4,4.4-4.4s4.4,2,4.4,4.4v428.7
		C122.5,496.8,120.5,498.7,118.1,498.7z"/>
	<path class="st0" d="M425.8,516.2c-1.8,0-3.5-1.1-4.1-2.9c-1.1-3.3-1.7-6.7-1.7-10.2c0-2.4,2-4.4,4.4-4.4s4.4,2,4.4,4.4
		c0,2.5,0.4,5,1.2,7.3c0.8,2.3-0.4,4.8-2.7,5.6C426.8,516.2,426.3,516.2,425.8,516.2L425.8,516.2z"/>
</g>
<path class="st0" d="M367.5,425l26.3,14.3L397,471l-16.4,21v63.3l-17.5-8.3l-17.5,8.3v-65.4c0,0-16.3-17.9-16.6-19.6
	c-0.3-1.7,1.3-21.9,1.3-24.1s10.9-14.9,10.9-14.9L367.5,425z"/>
<polygon class="st0" points="450.6,484.3 538,485.6 529,512.3 508,527.7 485.3,527.7 463.7,519 452.7,502.3 "/>
<path class="st0" d="M163,118h216.7v26.3c0,0-216.3,4-216.7,2.3C162.7,145,163,118,163,118z"/>
<path class="st0" d="M4.3,48.1c1-1.1,357-0.2,357.7,0s7.7-24.1,7.7-24.1L391,6.7l11.4-2.4L40.3,4.4L11.7,24L4.3,48.1z"/>
</svg>
