<?xml version="1.0" encoding="utf-8"?>
<!-- Generator: Adobe Illustrator 26.2.1, SVG Export Plug-In . SVG Version: 6.00 Build 0)  -->
<svg version="1.1" id="Слой_1" xmlns="http://www.w3.org/2000/svg" xmlns:xlink="http://www.w3.org/1999/xlink" x="0px" y="0px"
	 viewBox="0 0 490 560" style="enable-background:new 0 0 490 560;" xml:space="preserve">
<style type="text/css">
	.st0{fill:#455FED;}
</style>
<g>
	<path class="st0" d="M249.6,428.7c-2.4,0-4.4-2-4.4-4.4s1.9-4.4,4.3-4.4h0.1c2.4,0,4.4,2,4.4,4.4S252,428.7,249.6,428.7
		L249.6,428.7z"/>
	<path class="st0" d="M249.6,455c-2.4,0-4.4-2-4.4-4.4s1.9-4.4,4.3-4.4h0.1c2.4,0,4.4,2,4.4,4.4S252,455,249.6,455L249.6,455z"/>
	<path class="st0" d="M485.6,560H4.4C2,560,0,558,0,555.6v-81.9c0-34.8,18-48.1,51.2-60.5l2.5-0.9c24.9-9.3,76.6-28.6,96.8-43.7
		c1.9-1.5,4.7-1.1,6.1,0.9c1.4,1.9,1.1,4.7-0.9,6.1c-21.2,15.8-73.7,35.4-99,44.9l-2.5,0.9c-30.8,11.5-45.5,22.3-45.5,52.3v77.6
		h472.5v-77.6c0-30-14.7-40.8-45.5-52.3c-33.7-12.6-80.3-31.1-96.6-46.3c-1.8-1.6-1.9-4.4-0.2-6.2c1.7-1.8,4.4-1.8,6.2-0.2
		c16.9,15.8,74.7,37.4,93.7,44.5c33.2,12.4,51.2,25.7,51.2,60.5v81.9C490,558,488,560,485.6,560L485.6,560z"/>
	<path class="st0" d="M249.4,385C195,385,105,300.7,105,204.6c0-2.4,2-4.4,4.4-4.4s4.4,2,4.4,4.4c0,88.5,84.6,171.6,135.6,171.6
		S385,293.1,385,204.6c0-2.4,1.9-4.4,4.4-4.4c2.4,0,4.4,2,4.4,4.4C393.7,300.7,303.8,385,249.4,385z"/>
	<path class="st0" d="M109.4,183.7c-2.4,0-4.4-2-4.4-4.4V91.9c0-2.4,2-4.4,4.4-4.4s4.4,2,4.4,4.4v87.5
		C113.8,181.8,111.8,183.7,109.4,183.7L109.4,183.7z"/>
	<path class="st0" d="M389.4,183.7c-2.4,0-4.4-2-4.4-4.4V91.9c0-2.4,1.9-4.4,4.4-4.4c2.4,0,4.4,2,4.4,4.4v87.5
		C393.7,181.8,391.8,183.7,389.4,183.7L389.4,183.7z"/>
	<path class="st0" d="M249.4,192.5c-78.1,0-140-8.7-140.6-8.8c-2.4-0.3-4.1-2.6-3.7-4.9c0.3-2.4,2.6-4.1,4.9-3.7
		c0.6,0.1,61.9,8.7,139.4,8.7s138.8-8.6,139.4-8.7c2.3-0.3,4.6,1.3,4.9,3.7s-1.3,4.6-3.7,4.9C389.4,183.8,327.5,192.5,249.4,192.5
		L249.4,192.5z"/>
	<path class="st0" d="M249.4,113.7c-0.3,0-0.6,0-0.9-0.1L3.5,61.1c-2-0.4-3.5-2.2-3.5-4.3s1.4-3.8,3.5-4.3L248.5,0
		c0.6-0.1,1.2-0.1,1.8,0l192.5,41.2c2.4,0.5,3.9,2.8,3.4,5.2s-2.9,3.9-5.2,3.4l-191.6-41l-224.1,48l224.1,48l191.6-41
		c2.3-0.5,4.7,1,5.2,3.4s-1,4.7-3.4,5.2l-192.5,41.2C250,113.7,249.7,113.7,249.4,113.7L249.4,113.7z"/>
	<path class="st0" d="M126.9,166.2c-2.4,0-4.4-2-4.4-4.4v-61.2c0-2.4,2-4.4,4.4-4.4s4.4,2,4.4,4.4v61.2
		C131.3,164.3,129.3,166.2,126.9,166.2z"/>
	<path class="st0" d="M371.9,166.2c-2.4,0-4.4-2-4.4-4.4v-61.2c0-2.4,1.9-4.4,4.4-4.4c2.4,0,4.4,2,4.4,4.4v61.2
		C376.2,164.3,374.3,166.2,371.9,166.2z"/>
	<path class="st0" d="M459.4,61.2H283.7c-2.4,0-4.4-2-4.4-4.4s1.9-4.4,4.4-4.4h175.7c2.4,0,4.4,2,4.4,4.4S461.8,61.2,459.4,61.2z"/>
	<path class="st0" d="M459.4,122.5c-2.4,0-4.4-2-4.4-4.4V56.9c0-2.4,1.9-4.4,4.4-4.4c2.4,0,4.4,2,4.4,4.4v61.2
		C463.7,120.5,461.8,122.5,459.4,122.5L459.4,122.5z"/>
	<path class="st0" d="M468.1,131.2h-17.5c-2.4,0-4.4-2-4.4-4.4s1.9-4.4,4.4-4.4h17.5c2.4,0,4.4,2,4.4,4.4S470.5,131.2,468.1,131.2z"
		/>
	<path class="st0" d="M468.1,148.7c-2.4,0-4.4-2-4.4-4.4v-17.5c0-2.4,1.9-4.4,4.4-4.4c2.4,0,4.4,2,4.4,4.4v17.5
		C472.5,146.8,470.5,148.7,468.1,148.7z"/>
	<path class="st0" d="M468.1,148.7h-17.5c-2.4,0-4.4-2-4.4-4.4s1.9-4.4,4.4-4.4h17.5c2.4,0,4.4,2,4.4,4.4S470.5,148.7,468.1,148.7z"
		/>
	<path class="st0" d="M450.6,148.7c-2.4,0-4.4-2-4.4-4.4v-16.6c0-2.4,1.9-4.4,4.4-4.4c2.4,0,4.4,2,4.4,4.4v16.6
		C455,146.8,453,148.7,450.6,148.7z"/>
	<path class="st0" d="M441.9,192.5c-0.4,0-0.7,0-1.1-0.1c-2.3-0.6-3.8-3-3.2-5.3l8.7-35c0.6-2.3,2.9-3.8,5.3-3.2
		c2.3,0.6,3.8,3,3.2,5.3l-8.7,35C445.6,191.2,443.9,192.5,441.9,192.5L441.9,192.5z"/>
	<path class="st0" d="M476.9,192.5h-35c-2.4,0-4.4-2-4.4-4.4s1.9-4.4,4.4-4.4h35c2.4,0,4.4,2,4.4,4.4
		C481.2,190.5,479.3,192.5,476.9,192.5z"/>
	<path class="st0" d="M476.9,192.5c-2,0-3.8-1.3-4.3-3.3l-8.8-35c-0.6-2.3,0.8-4.7,3.2-5.3c2.3-0.6,4.7,0.8,5.3,3.2l8.8,35
		c0.6,2.3-0.8,4.7-3.2,5.3C477.6,192.5,477.2,192.5,476.9,192.5z"/>
	<path class="st0" d="M389.4,209c-2.4,0-4.4-2-4.4-4.4v-7.8c0-2.4,1.9-4.4,4.4-4.4c2.4,0,4.4,2,4.4,4.4v7.8
		C393.7,207,391.8,209,389.4,209z"/>
	<path class="st0" d="M109.4,209c-2.4,0-4.4-2-4.4-4.4v-7.8c0-2.4,2-4.4,4.4-4.4s4.4,2,4.4,4.4v7.8C113.8,207,111.8,209,109.4,209z"
		/>
	<path class="st0" d="M214.4,420c-1.6,0-3.1-0.9-3.9-2.4c-1.1-2.2-0.2-4.8,2-5.9l35-17.5c2.2-1.1,4.8-0.2,5.9,2
		c1.1,2.2,0.2,4.8-2,5.9l-35,17.5C215.7,419.8,215,420,214.4,420L214.4,420z"/>
	<path class="st0" d="M214.4,420c-1.1,0-2.2-0.4-3.1-1.3l-52.5-52.5c-1.7-1.7-1.7-4.5,0-6.2s4.5-1.7,6.2,0l52.5,52.5
		c1.7,1.7,1.7,4.5,0,6.2C216.6,419.6,215.5,420,214.4,420z"/>
	<path class="st0" d="M161.9,367.5c-2.4,0-4.4-2-4.4-4.4v-17.5c0-2.4,2-4.4,4.4-4.4s4.4,2,4.4,4.4v17.5
		C166.3,365.5,164.3,367.5,161.9,367.5z"/>
	<path class="st0" d="M284.4,420c-0.7,0-1.3-0.2-2-0.5l-35-17.5c-2.2-1.1-3-3.7-2-5.9c1.1-2.2,3.7-3,5.9-2l35,17.5
		c2.2,1.1,3,3.7,2,5.9C287.5,419.1,286,420,284.4,420L284.4,420z"/>
	<path class="st0" d="M284.4,420c-1.1,0-2.2-0.4-3.1-1.3c-1.7-1.7-1.7-4.5,0-6.2l52.5-52.5c1.7-1.7,4.5-1.7,6.2,0s1.7,4.5,0,6.2
		l-52.5,52.5C286.6,419.6,285.5,420,284.4,420L284.4,420z"/>
	<path class="st0" d="M336.9,367.5c-2.4,0-4.4-2-4.4-4.4v-17.5c0-2.4,1.9-4.4,4.4-4.4c2.4,0,4.4,2,4.4,4.4v17.5
		C341.2,365.5,339.3,367.5,336.9,367.5z"/>
	<path class="st0" d="M249.4,516.2c-1.1,0-2.2-0.4-3.1-1.3L132.5,401.2c-1.7-1.7-1.7-4.5,0-6.2s4.5-1.7,6.2,0l113.7,113.8
		c1.7,1.7,1.7,4.5,0,6.2C251.6,515.8,250.5,516.2,249.4,516.2L249.4,516.2z"/>
	<path class="st0" d="M249.4,516.2c-1.1,0-2.2-0.4-3.1-1.3c-1.7-1.7-1.7-4.5,0-6.2L360,395c1.7-1.7,4.5-1.7,6.2,0s1.7,4.5,0,6.2
		L252.5,515C251.6,515.8,250.5,516.2,249.4,516.2L249.4,516.2z"/>
	<path class="st0" d="M249.4,542.5c-1.1,0-2.2-0.4-3.1-1.3L115,410c-1.7-1.7-1.7-4.5,0-6.2s4.5-1.7,6.2,0L252.5,535
		c1.7,1.7,1.7,4.5,0,6.2C251.6,542.1,250.5,542.5,249.4,542.5L249.4,542.5z"/>
	<path class="st0" d="M249.4,542.5c-1.1,0-2.2-0.4-3.1-1.3c-1.7-1.7-1.7-4.5,0-6.2l131.2-131.2c1.7-1.7,4.5-1.7,6.2,0s1.7,4.5,0,6.2
		L252.5,541.2C251.6,542.1,250.5,542.5,249.4,542.5L249.4,542.5z"/>
</g>
<path class="st0" d="M443.6,69.2L253,111.4L13,58.8L253,6.1l190.6,39.7l-168.9,0c0,0-20,9.2,0,21.6C301,67.9,443.6,69.2,443.6,69.2z
	"/>
<polygon class="st0" points="102.8,398.1 238.8,533.7 256.6,537.1 394.8,399 367.5,385 249.4,508.6 129.1,385 "/>
</svg>
