<?xml version="1.0" encoding="utf-8"?>
<!-- Generator: Adobe Illustrator 26.2.1, SVG Export Plug-In . SVG Version: 6.00 Build 0)  -->
<svg version="1.1" id="Слой_1" xmlns="http://www.w3.org/2000/svg" xmlns:xlink="http://www.w3.org/1999/xlink" x="0px" y="0px"
	 viewBox="0 0 525 463.8" style="enable-background:new 0 0 525 463.8;" xml:space="preserve">
<style type="text/css">
	.st0{fill:#455FED;}
</style>
<g>
	<path class="st0" d="M512.4,70H371.9V21.9c0-5.8-2.3-11.4-6.4-15.5S355.8,0,350,0H175c-5.8,0-11.4,2.3-15.5,6.4s-6.4,9.7-6.4,15.5
		V70H12.6C5.6,70.1,0,75.8,0,82.8v176.1c0,5.6,2.1,10.9,6,14.9s9.2,6.2,14.8,6.3h79.9v35l4.4,4.4h61.3l4.4-4.4v-35h183.7v35l4.4,4.4
		H420l4.4-4.4v-35h79.9c5.6-0.1,10.9-2.3,14.8-6.3c3.9-4,6.1-9.3,6-14.9V82.8C525,75.8,519.4,70.1,512.4,70L512.4,70z M161.9,21.9
		c0-7.2,5.9-13.1,13.1-13.1h175c7.2,0,13.1,5.9,13.1,13.1V70h-21.9V30.6l-4.4-4.4H188.1l-4.4,4.4V70h-21.9L161.9,21.9L161.9,21.9z
		 M332.5,70h-140V35h140V70z M161.9,310.6h-52.5v-70h52.5V310.6z M415.6,310.6h-52.5v-70h52.5V310.6z M516.2,258.9
		c0.1,6.7-5.3,12.3-12,12.4h-79.9v-35l-4.4-4.4h-61.2l-4.4,4.4v35H170.6v-35l-4.4-4.4H105l-4.4,4.4v35H20.8
		c-6.7-0.1-12.1-5.7-12-12.4V82.8c0-2.2,1.7-3.9,3.8-4h499.9c2.2,0.1,3.9,1.9,3.8,4L516.2,258.9z"/>
	<path class="st0" d="M498.7,451.2c0,2.1-1.7,3.8-3.8,3.8H30c-2.1,0-3.8-1.7-3.8-3.8V310.6h-8.8v140.6c0,6.9,5.6,12.5,12.5,12.6H495
		c6.9,0,12.5-5.6,12.5-12.6V310.6h-8.8V451.2z"/>
</g>
<path class="st0" d="M188.2,30.7l-1,45l-32-1.3c0,0,2.6-56.7,2.6-57.3s6.4-9.3,6.8-9.4c0.3-0.1,10.1-4,10.1-4h177.8l12.1,8l2.9,10.4
	l1.7,53l-33.2,0l0.2-44L188.2,30.7z"/>
<rect x="105.4" y="236.8" class="st0" width="59.3" height="79.1"/>
<rect x="360.1" y="236.8" class="st0" width="61.1" height="79.1"/>
</svg>
