<?xml version="1.0" encoding="utf-8"?>
<!-- Generator: Adobe Illustrator 26.2.1, SVG Export Plug-In . SVG Version: 6.00 Build 0)  -->
<svg version="1.1" id="Слой_1" xmlns="http://www.w3.org/2000/svg" xmlns:xlink="http://www.w3.org/1999/xlink" x="0px" y="0px"
	 viewBox="0 0 660 560.1" style="enable-background:new 0 0 660 560.1;" xml:space="preserve">
<style type="text/css">
	.st0{fill:#455FED;}
</style>
<g>
	<path class="st0" d="M326.2,461.4c-4.5-9.8-11.1-21.1-18.8-24.4v-47.7l0.6-0.2c-0.7-1.7-1.3-3.5-1.7-5.2c-2.9,1.7-6,3-9.3,3.9
		c0.2,1.4,0.4,2.8,0.4,4.2c0.1,1.6,0,3.2-0.1,4.7v40.9c-5.2,2.4-10.3,7.8-15.4,16.5c-12,20.7-23.2,60-11.8,77.2
		c2.9,4.4,8.5,9.2,18.8,7.8c2.8-0.3,4.7-2.9,4.4-5.7c-0.3-2.8-2.9-4.8-5.7-4.4c-5.5,0.7-7.7-1.5-9.1-3.4
		c-7.7-11.5,0.2-46.1,12.2-66.4c6.1-10.4,10.8-13.2,12.4-12.8c1.7,0.1,7.3,5,14,19.5c10.1,21.9,15.9,52.1,8.6,62.1
		c-1.3,1.6-3.4,3.7-8.9,3c-2.8-0.3-5.4,1.6-5.7,4.4c-0.3,2.8,1.6,5.4,4.4,5.7c1.3,0.1,2.4,0.2,3.4,0.2c7.8,0,12.4-3.8,14.9-7.3
		C345.3,517.9,335.5,481.8,326.2,461.4z"/>
	<path class="st0" d="M535.4,427.3v-37.9h0.2c-0.1-1.1-0.2-2.3-0.3-3.4c0-1,0-1.9,0-2.9c-2.7-0.7-5.3-1.8-7.7-3.2
		c-0.7,2.2-1.6,4.4-2.6,6.7c-0.1,0.1-0.1,0.3-0.2,0.4l0.4,0.1v40.3c-13.5,2.4-23.7,14.3-23.7,28.5c0,15.9,13,28.9,29,28.9
		c15.9,0,28.9-13,28.9-28.9C559.4,441.6,549,429.7,535.4,427.3z M530.3,474.7c-10.3,0-18.8-8.4-18.8-18.8s8.5-18.8,18.8-18.8
		s18.8,8.5,18.8,18.8S540.6,474.7,530.3,474.7z"/>
</g>
<path class="st0" d="M655.6,560.1H174.4c-2.4,0-4.4-2-4.4-4.4v-81.9c0-34.8,18-48.1,51.2-60.5l2.5-0.9c24.9-9.3,76.6-28.6,96.8-43.7
	c1.9-1.5,4.7-1.1,6.1,0.9c1.4,1.9,1.1,4.7-0.9,6.1c-21.2,15.8-73.7,35.4-99,44.9l-2.5,0.9c-30.8,11.5-45.5,22.3-45.5,52.3v77.6
	h472.5v-77.6c0-30-14.7-40.8-45.5-52.3c-33.7-12.6-80.3-31.1-96.6-46.3c-1.8-1.6-1.9-4.4-0.2-6.2c1.7-1.8,4.4-1.8,6.2-0.2
	c16.9,15.8,74.7,37.4,93.7,44.5C642,425.7,660,439,660,473.8v81.9C660,558.1,658,560.1,655.6,560.1L655.6,560.1z"/>
<path class="st0" d="M419.4,385.1C365,385.1,275,300.8,275,204.7c0-2.4,2-4.4,4.4-4.4c2.4,0,4.4,2,4.4,4.4
	c0,88.5,84.6,171.6,135.6,171.6S555,293.2,555,204.7c0-2.4,1.9-4.4,4.4-4.4c2.4,0,4.4,2,4.4,4.4
	C563.7,300.8,473.8,385.1,419.4,385.1z"/>
<path class="st0" d="M279.4,183.8c-2.4,0-4.4-2-4.4-4.4V92c0-2.4,2-4.4,4.4-4.4c2.4,0,4.4,2,4.4,4.4v87.5
	C283.8,181.9,281.8,183.8,279.4,183.8L279.4,183.8z"/>
<path class="st0" d="M559.4,183.8c-2.4,0-4.4-2-4.4-4.4V92c0-2.4,1.9-4.4,4.4-4.4c2.4,0,4.4,2,4.4,4.4v87.5
	C563.7,181.9,561.8,183.8,559.4,183.8L559.4,183.8z"/>
<path class="st0" d="M419.4,192.6c-78.1,0-140-8.7-140.6-8.8c-2.4-0.3-4.1-2.6-3.7-4.9c0.3-2.4,2.6-4.1,4.9-3.7
	c0.6,0.1,61.9,8.7,139.4,8.7s138.8-8.6,139.4-8.7c2.3-0.3,4.6,1.3,4.9,3.7s-1.3,4.6-3.7,4.9C559.4,183.9,497.5,192.6,419.4,192.6
	L419.4,192.6z"/>
<path class="st0" d="M419.4,113.8c-0.3,0-0.6,0-0.9-0.1l-245-52.5c-2-0.4-3.5-2.2-3.5-4.3s1.4-3.8,3.5-4.3l245-52.5
	c0.6-0.1,1.2-0.1,1.8,0l192.5,41.2c2.4,0.5,3.9,2.8,3.4,5.2s-2.9,3.9-5.2,3.4l-191.6-41l-224.1,48l224.1,48l191.6-41
	c2.3-0.5,4.7,1,5.2,3.4s-1,4.7-3.4,5.2l-192.5,41.2C420,113.8,419.7,113.8,419.4,113.8L419.4,113.8z"/>
<path class="st0" d="M296.9,166.3c-2.4,0-4.4-2-4.4-4.4v-61.2c0-2.4,2-4.4,4.4-4.4c2.4,0,4.4,2,4.4,4.4v61.2
	C301.3,164.4,299.3,166.3,296.9,166.3z"/>
<path class="st0" d="M541.9,166.3c-2.4,0-4.4-2-4.4-4.4v-61.2c0-2.4,1.9-4.4,4.4-4.4c2.4,0,4.4,2,4.4,4.4v61.2
	C546.2,164.4,544.3,166.3,541.9,166.3z"/>
<path class="st0" d="M419.4,70.1c-12.5,0-21.9-5.6-21.9-13.1s9.4-13.1,21.9-13.1s21.9,5.6,21.9,13.1
	C441.2,64.5,431.8,70.1,419.4,70.1z M419.4,52.6c-8.5,0-13.1,3.3-13.1,4.4s4.7,4.4,13.1,4.4c8.5,0,13.1-3.3,13.1-4.4
	S427.8,52.6,419.4,52.6z"/>
<path class="st0" d="M629.4,61.3H453.7c-2.4,0-4.4-2-4.4-4.4s1.9-4.4,4.4-4.4h175.7c2.4,0,4.4,2,4.4,4.4S631.8,61.3,629.4,61.3z"/>
<path class="st0" d="M629.4,122.6c-2.4,0-4.4-2-4.4-4.4V57c0-2.4,1.9-4.4,4.4-4.4c2.4,0,4.4,2,4.4,4.4v61.2
	C633.7,120.6,631.8,122.6,629.4,122.6L629.4,122.6z"/>
<path class="st0" d="M638.1,131.3h-17.5c-2.4,0-4.4-2-4.4-4.4c0-2.4,1.9-4.4,4.4-4.4h17.5c2.4,0,4.4,2,4.4,4.4
	C642.5,129.3,640.5,131.3,638.1,131.3z"/>
<path class="st0" d="M638.1,148.8c-2.4,0-4.4-2-4.4-4.4v-17.5c0-2.4,1.9-4.4,4.4-4.4c2.4,0,4.4,2,4.4,4.4v17.5
	C642.5,146.9,640.5,148.8,638.1,148.8z"/>
<path class="st0" d="M638.1,148.8h-17.5c-2.4,0-4.4-2-4.4-4.4s1.9-4.4,4.4-4.4h17.5c2.4,0,4.4,2,4.4,4.4S640.5,148.8,638.1,148.8z"
	/>
<path class="st0" d="M620.6,148.8c-2.4,0-4.4-2-4.4-4.4v-16.6c0-2.4,1.9-4.4,4.4-4.4c2.4,0,4.4,2,4.4,4.4v16.6
	C625,146.9,623,148.8,620.6,148.8z"/>
<path class="st0" d="M611.9,192.6c-0.4,0-0.7,0-1.1-0.1c-2.3-0.6-3.8-3-3.2-5.3l8.7-35c0.6-2.3,2.9-3.8,5.3-3.2
	c2.3,0.6,3.8,3,3.2,5.3l-8.7,35C615.6,191.3,613.9,192.6,611.9,192.6L611.9,192.6z"/>
<path class="st0" d="M646.9,192.6h-35c-2.4,0-4.4-2-4.4-4.4s1.9-4.4,4.4-4.4h35c2.4,0,4.4,2,4.4,4.4
	C651.2,190.6,649.3,192.6,646.9,192.6z"/>
<path class="st0" d="M646.9,192.6c-2,0-3.8-1.3-4.3-3.3l-8.8-35c-0.6-2.3,0.8-4.7,3.2-5.3c2.3-0.6,4.7,0.8,5.3,3.2l8.8,35
	c0.6,2.3-0.8,4.7-3.2,5.3C647.6,192.6,647.2,192.6,646.9,192.6z"/>
<path class="st0" d="M559.4,209.1c-2.4,0-4.4-2-4.4-4.4v-7.8c0-2.4,1.9-4.4,4.4-4.4c2.4,0,4.4,2,4.4,4.4v7.8
	C563.7,207.1,561.8,209.1,559.4,209.1z"/>
<path class="st0" d="M279.4,209.1c-2.4,0-4.4-2-4.4-4.4v-7.8c0-2.4,2-4.4,4.4-4.4c2.4,0,4.4,2,4.4,4.4v7.8
	C283.8,207.1,281.8,209.1,279.4,209.1z"/>
<g>
	<path class="st0" d="M413.8,431.4c-1.9,0-3.9-0.1-5.8-0.2c-44.7-3-72.5-40.1-73.7-41.7c-1.5-2-1-4.8,1-6.3s4.8-1,6.3,0.9
		c0.3,0.4,26.7,35.4,67.1,38.1c27.8,1.9,56-11.7,83.7-40.2c1.7-1.8,4.6-1.8,6.4-0.1s1.8,4.6,0.1,6.4
		C471,416.9,442.4,431.4,413.8,431.4z"/>
</g>
<path class="st0" d="M614.2,67.3l-193.3,42.2l-240-52.6l240-52.7l193.3,39.7H442.6c0,0-20,9.2,0,21.6
	C468.8,66,614.2,67.3,614.2,67.3z"/>
<ellipse class="st0" cx="529.7" cy="455.7" rx="25.7" ry="23.3"/>
<path class="st0" d="M620.6,129l-3.1,33.7l-6.8,27.3l37.3-1.8c0,0-9.6-43.7-9.9-43.8s0-19.4,0-19.4L620.6,129z"/>
<path class="st0" d="M118,125.2c-16.8,0-26.6-14.3-27.4-27.8c-0.7-12.9,6.8-27,25.3-29.1c20-2.3,31,11.7,32.6,24.5
	c1.5,12.4-4.8,26.8-22.6,31.3C123.3,124.9,120.6,125.2,118,125.2L118,125.2z M120.1,73.7c-1.1,0-2.3,0.1-3.5,0.2
	c-15.9,1.8-20.9,13.6-20.3,23.2c0.6,10.9,8.5,22.5,21.8,22.5c2.1,0,4.3-0.3,6.6-0.9c15.4-3.9,19.5-16,18.4-25.2
	C141.7,83.7,134.2,73.7,120.1,73.7L120.1,73.7z"/>
<path class="st0" d="M119,546.7c-0.1,0-0.2,0-0.3,0c-1.5-0.2-2.6-1.6-2.4-3.1c4-33.5,2.2-68.8,0.4-103c-1.2-23.6-2.5-48-1.8-71.9
	c1.6-59.2,2.1-109.6-0.1-163.1c-1.3-30.6-1-55.1,4.3-82.3c0.3-1.5,1.8-2.5,3.3-2.2c1.5,0.3,2.5,1.8,2.2,3.3
	c-5.2,26.6-5.5,50.7-4.2,81c2.2,53.6,1.6,104.1,0.1,163.4c-0.6,23.7,0.6,48,1.8,71.5c1.8,34.4,3.6,70-0.5,103.9
	C121.6,545.6,120.4,546.7,119,546.7L119,546.7z"/>
<path class="st0" d="M82.6,212.1c-0.1,0-0.2,0-0.3,0c-1.8-0.2-43.2-4.6-57.4-18.4c-9.4-9.2-13.1-20.2-16.6-30.9
	c-2.2-6.5-4.4-13.2-7.9-19.3c-0.5-0.9-0.5-1.9,0-2.8c0.5-0.9,1.3-1.4,2.5-1.4l84,1.4c0.8,0,1.6,0.4,2.1,1c0.5,0.6,0.7,1.5,0.6,2.3
	c-1.9,9.6-2,20.5-2,32c-0.1,11.4-0.1,23.2-2.2,33.8C85.1,211.2,83.9,212.1,82.6,212.1L82.6,212.1z M7.5,145
	c2.5,5.3,4.4,10.8,6.1,16.1c3.5,10.5,6.8,20.4,15.3,28.6c10.9,10.7,42.2,15.4,51.5,16.5c1.5-9.4,1.6-20,1.6-30.2
	c0.1-10.1,0.1-20.4,1.6-29.8L7.5,145z"/>
<path class="st0" d="M159.6,220.3c-1.5,0-2.7-1.2-2.8-2.6l0-0.2c0-10.6-0.4-21.4-0.7-31.8c-0.4-12.9-0.9-26.3-0.7-39.4l0-9.7
	c0-0.9,0.4-1.7,1.1-2.2c0.7-0.5,1.5-0.7,2.4-0.5c10.9,2.6,22.4,3.8,35.2,3.8c12.9,0,25.8-1.3,36.6-2.5c1.4-0.2,2.6,0.6,3,1.9
	l1.4,4.2c0.2,0.5,0.2,1,0.1,1.5c-8.4,35-34.8,73.2-73.1,76.2C161.5,219.8,160.6,220.3,159.6,220.3L159.6,220.3z M161,140v6.3
	c-0.2,13,0.2,26.3,0.7,39.2c0.3,9.1,0.6,18.5,0.7,27.8c33.3-3.2,58.7-37.6,67.1-71.1l-0.4-1.3c-10.5,1.2-22.7,2.3-35,2.3
	C182.1,143.2,171.3,142.1,161,140L161,140z"/>
<path class="st0" d="M17.7,174.3c-0.4,0-0.7,0-1.1,0c-1.5-0.1-2.7-1.4-2.6-3c0.1-1.5,1.3-2.6,3-2.6c6.9,0.4,15.2-4.9,21.9-9.2
	l1.8,2.2l1.5,2.4C34.8,168.7,26.2,174.3,17.7,174.3L17.7,174.3z"/>
<path class="st0" d="M47.6,203.7c-0.2,0-0.5,0-0.7-0.1c-1.5-0.4-2.4-1.9-2-3.4c2.1-7.8,6.7-18.5,13.3-25.1c1.1-1.1,2.9-1.1,4,0
	c1.1,1.1,1.1,2.9,0,4c-5.8,5.8-10,15.8-11.9,22.5C50,202.9,48.8,203.7,47.6,203.7L47.6,203.7z"/>
<path class="st0" d="M190.4,206.5c-1,0-2-0.6-2.5-1.6c-1.2-2.6-2.8-5.9-4.3-9.4c-2.5-5.4-5-11-6.8-14.3c-0.7-1.4-0.2-3.1,1.1-3.8
	c1.3-0.7,3.1-0.2,3.8,1.1c1.9,3.5,4.5,9.2,7,14.7c1.6,3.4,3.1,6.7,4.3,9.3c0.7,1.4,0.1,3.1-1.3,3.7
	C191.2,206.4,190.8,206.5,190.4,206.5L190.4,206.5z"/>
<path class="st0" d="M217,174.3c-0.5,0-1-0.1-1.5-0.4c-5.8-3.5-13.6-7.2-20.5-9.5c-1.5-0.5-2.2-2.1-1.7-3.6c0.5-1.5,2.1-2.2,3.6-1.7
	c7.2,2.5,15.5,6.3,21.5,10.1c1.3,0.8,1.7,2.5,0.9,3.8C218.9,173.8,217.9,174.3,217,174.3L217,174.3z"/>
<path class="st0" d="M137.2,255.5c-1.2,0-2.4-0.8-2.7-2c-0.4-1.5,0.5-3,1.9-3.4c4.4-1.2,10.4-1.9,16.7-2.6
	c15.1-1.7,33.9-3.8,37.4-15.1c0.5-1.5,2-2.3,3.5-1.8c1.5,0.5,2.3,2,1.8,3.5c-4.6,14.9-25.4,17.2-42.2,19c-6,0.7-11.8,1.3-15.8,2.4
	C137.7,255.5,137.4,255.5,137.2,255.5L137.2,255.5z"/>
<path class="st0" d="M145.6,335c-4.7,0-8.9-0.5-11.8-1.2c-1.5-0.4-2.4-1.9-2-3.4c0.4-1.5,1.9-2.4,3.4-2c7.3,1.8,24.8,1.6,31.4-4.2
	c1.9-1.7,2.7-3.7,2.4-6.3c-2-15.7-46.5-18.8-70.4-20.5c-7.2-0.5-12.9-0.9-16.3-1.5c-20.2-3.5-29.1-7.6-29.6-13.5
	c-0.7-7.5,11.9-12.9,32.9-20.8c4-1.5,8-3,11.5-4.5c1.4-0.6,3.1,0.1,3.7,1.5c0.6,1.4-0.1,3.1-1.5,3.7c-3.6,1.5-7.6,3-11.7,4.5
	c-9.6,3.6-29.7,11.2-29.3,15c0,0.2,0.7,4.2,25,8.5c3.1,0.5,9,1,15.8,1.4c29.1,2,73,5.1,75.6,25.4c0.6,4.4-0.9,8.2-4.2,11.2
	C164.6,333.3,154.4,335,145.6,335L145.6,335z"/>
<path class="st0" d="M135.8,420.7c-1.5,0-2.7-1.2-2.8-2.7c-0.1-1.5,1.2-2.8,2.7-2.9c7.7-0.3,12.9-2.4,14.3-5.8
	c1.3-3.3-0.9-8.1-5.7-12.9c-4.3-4.2-18-7.3-28-9.6c-5.3-1.2-10-2.3-13.2-3.4c-1.4-0.5-3.4-1-5.8-1.7c-12-3.3-30.1-8.3-30.2-18.7
	c-0.1-7.7,9.8-11.4,19.3-14.9c4.5-1.7,9.1-3.4,11.1-5.1c1.2-1,2.9-0.9,3.9,0.3c1,1.2,0.9,2.9-0.3,3.9c-2.8,2.4-7.7,4.2-12.8,6.1
	c-6.6,2.5-15.7,5.8-15.7,9.6c0.1,6.2,18.3,11.2,26.1,13.4c2.5,0.7,4.7,1.3,6.2,1.8c2.9,1,7.6,2.1,12.6,3.2
	c11.8,2.7,25.2,5.8,30.6,11.1c6.6,6.5,9.2,13.4,7,18.9C153.6,415.3,149,420.2,135.8,420.7C135.9,420.7,135.8,420.7,135.8,420.7
	L135.8,420.7z"/>
<path class="st0" d="M137.2,504.7c-1.1,0-2.1-0.6-2.6-1.7c-0.6-1.4,0-3.1,1.5-3.7c5.8-2.5,12.8-6.6,12.7-11.6
	c-0.2-7.8-16.4-17.6-32.5-23.9c-3.6-1.4-35.2-14.1-34.3-27c0.4-5.5,5.9-9.3,16.8-11.9c1.5-0.3,3,0.6,3.4,2.1c0.3,1.5-0.6,3-2.1,3.4
	c-11,2.5-12.4,5.6-12.5,6.8c-0.4,6,17.6,16.3,30.7,21.4c10.8,4.2,35.8,15.4,36.1,29c0.1,6.5-5.3,12.2-16,16.9
	C138,504.6,137.6,504.7,137.2,504.7L137.2,504.7z"/>
<path class="st0" d="M89.6,534.1c-0.1,0-0.1,0-0.2,0c-1.5-0.1-2.7-1.4-2.6-3c0.4-6.6,5.6-13.9,12.7-17.7c1.4-0.7,3.1-0.2,3.8,1.1
	c0.7,1.4,0.2,3.1-1.1,3.8c-6.1,3.3-9.5,9.1-9.7,13.1C92.3,532.9,91.1,534.1,89.6,534.1L89.6,534.1z"/>
<circle class="st0" cx="119.7" cy="96.7" r="25.1"/>
</svg>
