<?xml version="1.0" encoding="utf-8"?>
<!-- Generator: Adobe Illustrator 26.2.1, SVG Export Plug-In . SVG Version: 6.00 Build 0)  -->
<svg version="1.1" id="Слой_1" xmlns="http://www.w3.org/2000/svg" xmlns:xlink="http://www.w3.org/1999/xlink" x="0px" y="0px"
	 viewBox="0 0 489.7 584" style="enable-background:new 0 0 489.7 584;" xml:space="preserve">
<style type="text/css">
	.st0{fill:#455FED;}
</style>
<g>
	<path class="st0" d="M245.3,447.1c-2.4,0-4.4-2.1-4.4-4.6c0-2.5,1.9-4.6,4.3-4.6h0.1c2.4,0,4.4,2.1,4.4,4.6
		C249.7,445,247.7,447.1,245.3,447.1L245.3,447.1z"/>
	<path class="st0" d="M245.3,474.5c-2.4,0-4.4-2.1-4.4-4.6c0-2.5,1.9-4.6,4.3-4.6h0.1c2.4,0,4.4,2.1,4.4,4.6
		C249.7,472.4,247.7,474.5,245.3,474.5L245.3,474.5z"/>
	<path class="st0" d="M245.3,501.8c-2.4,0-4.4-2.1-4.4-4.6c0-2.5,1.9-4.6,4.3-4.6h0.1c2.4,0,4.4,2.1,4.4,4.6
		C249.7,499.7,247.7,501.8,245.3,501.8L245.3,501.8z"/>
	<path class="st0" d="M245.3,529.2c-2.4,0-4.4-2.1-4.4-4.6s1.9-4.6,4.3-4.6h0.1c2.4,0,4.4,2.1,4.4,4.6S247.7,529.2,245.3,529.2
		L245.3,529.2z"/>
	<path class="st0" d="M245.3,556.6c-2.4,0-4.4-2.1-4.4-4.6c0-2.5,1.9-4.6,4.3-4.6h0.1c2.4,0,4.4,2.1,4.4,4.6
		C249.7,554.5,247.7,556.6,245.3,556.6L245.3,556.6z"/>
	<path class="st0" d="M245,410.6c-59.9,0-146.6-90.5-156.5-186.6c-0.3-2.5,1.5-4.8,3.9-5s4.6,1.6,4.8,4.1
		c4.5,43.2,25.6,88.7,58.1,125c29.4,33,63.8,53.4,89.7,53.4c56,0,148.8-95,148.8-196.2c0-2.5,2-4.6,4.4-4.6s4.4,2.1,4.4,4.6
		C402.5,314.6,304.3,410.6,245,410.6L245,410.6z"/>
	<path class="st0" d="M485.6,584H4.4C2,584,0,581.9,0,579.4v-54.8c0-39.1,19.4-54.1,55.3-68.1c5.6-2.2,12.4-4.5,19.8-6.9
		c4.9-1.7,10.1-3.3,15.3-5.2c2.3-0.8,4.8,0.5,5.5,2.9c0.8,2.4-0.5,5-2.8,5.7c-5.3,1.9-10.5,3.5-15.5,5.2c-7.2,2.4-13.9,4.6-19.4,6.8
		c-33.6,13.1-49.7,25.3-49.7,59.5v50.2H481v-50.2c0-34.2-16-46.5-49.7-59.5c-5.5-2.2-12.2-4.4-19.4-6.8c-4.9-1.7-10.1-3.3-15.4-5.2
		c-2.3-0.8-3.5-3.3-2.8-5.7c0.8-2.4,3.3-3.6,5.5-2.9c5.2,1.9,10.4,3.5,15.3,5.1c7.4,2.4,14.2,4.7,19.9,6.9
		c35.9,14,55.3,29,55.3,68.1v54.8C490,581.9,488,584,485.6,584L485.6,584z"/>
	<path class="st0" d="M161.9,392.3c-2.4,0-4.4-2.1-4.4-4.6v-26.3c0-2.5,2-4.6,4.4-4.6s4.4,2.1,4.4,4.6v26.3
		C166.2,390.3,164.3,392.3,161.9,392.3z"/>
	<path class="st0" d="M328.1,392.3c-2.4,0-4.4-2.1-4.4-4.6v-26.3c0-2.5,2-4.6,4.4-4.6s4.4,2.1,4.4,4.6v26.3
		C332.5,390.3,330.5,392.3,328.1,392.3z"/>
	<path class="st0" d="M415.6,187.1c-2.4,0-4.4-2.1-4.4-4.6C411.2,86.9,336.7,9.2,245,9.2S78.8,86.9,78.8,182.5c0,2.5-2,4.6-4.4,4.6
		S70,185,70,182.5C70,81.9,148.5,0,245,0s175,81.9,175,182.5C420,185,418,187.1,415.6,187.1z"/>
	<path class="st0" d="M459.4,365c-0.8,0-1.7-0.2-2.4-0.7c-54-37.5-46.1-176.1-45.7-182c0.2-2.5,2.4-4.4,4.6-4.3
		c2.4,0.2,4.2,2.3,4.1,4.8c-0.1,1.4-8,139.2,41.8,173.8c2,1.4,2.6,4.3,1.2,6.4C462.2,364.3,460.8,365,459.4,365L459.4,365z"/>
	<path class="st0" d="M363.1,400.8c-2.2,0-4.2-1.8-4.4-4.2c-0.2-2.5,1.6-4.7,4-4.9c57.7-5.1,93.5-34.4,93.9-34.7
		c1.9-1.6,4.6-1.3,6.2,0.7c1.5,2,1.2,4.8-0.7,6.5c-1.5,1.3-38.3,31.4-98.6,36.7C363.3,400.8,363.2,400.8,363.1,400.8L363.1,400.8z"
		/>
	<path class="st0" d="M30.6,365c-1.4,0-2.8-0.7-3.6-2c-1.3-2.1-0.8-4.9,1.2-6.4C78,322,70.1,184.2,70,182.8
		c-0.2-2.5,1.7-4.7,4.1-4.8c2.2-0.1,4.5,1.8,4.6,4.3c0.4,5.8,8.3,144.5-45.7,182C32.3,364.8,31.5,365,30.6,365L30.6,365z"/>
	<path class="st0" d="M126.9,400.8c-0.1,0-0.2,0-0.4,0c-60.4-5.3-97.1-35.5-98.6-36.7c-1.9-1.6-2.2-4.5-0.7-6.5
		c1.5-2,4.3-2.3,6.1-0.7c0.4,0.3,36.3,29.7,93.9,34.7c2.4,0.2,4.2,2.4,4,4.9C131,398.9,129.1,400.8,126.9,400.8L126.9,400.8z"/>
	<path class="st0" d="M74.9,209.5c-2.3,0-4.2-1.9-4.4-4.3c-0.2-2.5,1.7-4.7,4.1-4.9C295,184.7,371.5,67.2,372.3,65.9
		c1.3-2.1,4-2.7,6.1-1.4c2,1.4,2.6,4.2,1.3,6.4c-0.8,1.3-79.7,122.6-304.4,138.6C75.1,209.5,75,209.5,74.9,209.5L74.9,209.5z"/>
	<path class="st0" d="M415.4,191.9c-0.1,0-0.2,0-0.4,0c-60.1-4.9-113.7-50.5-116-52.4c-1.9-1.6-2.1-4.5-0.6-6.5s4.3-2.2,6.2-0.6
		c0.5,0.4,53.8,45.7,111.1,50.4c2.4,0.2,4.2,2.4,4,4.9C419.6,190.1,417.7,191.9,415.4,191.9L415.4,191.9z"/>
	<path class="st0" d="M214.4,246.3h-61.2c-7.2,0-13.1-6.2-13.1-13.7v-18.2c0-7.5,5.9-13.7,13.1-13.7h61.2c7.2,0,13.1,6.2,13.1,13.7
		v18.2C227.5,240.3,221.6,246.3,214.4,246.3z M153.1,209.8c-2.4,0-4.4,2.1-4.4,4.6v18.2c0,2.5,2,4.6,4.4,4.6h61.2
		c2.4,0,4.4-2.1,4.4-4.6v-18.2c0-2.5-2-4.6-4.4-4.6H153.1z"/>
	<path class="st0" d="M336.9,246.3h-61.2c-7.2,0-13.1-6.2-13.1-13.7v-18.2c0-7.5,5.9-13.7,13.1-13.7h61.2c7.2,0,13.1,6.2,13.1,13.7
		v18.2C350,240.3,344.1,246.3,336.9,246.3z M275.6,209.8c-2.4,0-4.4,2.1-4.4,4.6v18.2c0,2.5,2,4.6,4.4,4.6h61.2
		c2.4,0,4.4-2.1,4.4-4.6v-18.2c0-2.5-2-4.6-4.4-4.6H275.6z"/>
	<path class="st0" d="M266.9,228.4h-43.8c-2.4,0-4.4-2.1-4.4-4.6s2-4.6,4.4-4.6h43.8c2.4,0,4.4,2.1,4.4,4.6S269.3,228.4,266.9,228.4
		z"/>
	<path class="st0" d="M170.6,565.8c-1.4,0-2.8-0.7-3.6-2l-17.5-27.3c-0.8-1.1-0.9-2.6-0.5-4l8-24.9l-50.9-61.9
		c-1.5-1.8-1.4-4.5,0.2-6.2l43.8-45.7c1.7-1.8,4.5-1.8,6.2,0c1.7,1.8,1.7,4.7,0,6.5l-40.9,42.7l49.9,60.7c1,1.3,1.3,2.9,0.8,4.4
		l-8.1,25.2l16.3,25.5c1.3,2.1,0.8,4.9-1.2,6.4C172.3,565.4,171.5,565.8,170.6,565.8L170.6,565.8z"/>
	<path class="st0" d="M214.4,565.8c-1.8,0-3.4-1.1-4.1-2.9L149,398.6c-0.9-2.4,0.2-5,2.5-5.9c2.3-0.9,4.8,0.2,5.7,2.6l61.2,164.2
		c0.9,2.4-0.2,5-2.5,5.9C215.4,565.6,214.9,565.8,214.4,565.8L214.4,565.8z"/>
	<path class="st0" d="M319.4,565.8c-0.8,0-1.7-0.2-2.4-0.7c-2-1.4-2.6-4.3-1.2-6.4l16.3-25.5l-8.1-25.2c-0.5-1.6-0.2-3.2,0.8-4.4
		l49.9-60.7l-40.9-42.7c-1.7-1.8-1.7-4.7,0-6.5c1.7-1.8,4.5-1.8,6.2,0l43.8,45.7c1.6,1.7,1.7,4.4,0.2,6.2l-51,61.9l8,24.9
		c0.4,1.4,0.2,2.8-0.5,4L323,563.7C322.2,565,320.8,565.8,319.4,565.8L319.4,565.8z"/>
	<path class="st0" d="M275.6,565.8c-0.5,0-1.1-0.1-1.6-0.3c-2.2-0.9-3.4-3.5-2.5-5.9l61.3-164.2c0.9-2.4,3.4-3.5,5.7-2.6
		c2.2,0.9,3.4,3.5,2.5,5.9l-61.2,164.2C279,564.6,277.4,565.8,275.6,565.8L275.6,565.8z"/>
	<path class="st0" d="M179.4,447.1c-1.7,0-3.4-1-4.1-2.9c-0.9-2.3,0.2-5,2.5-5.9l66.1-27.3c2.2-0.9,4.8,0.2,5.7,2.6
		c0.9,2.3-0.2,5-2.5,5.9L181,446.8C180.4,447,179.9,447.1,179.4,447.1L179.4,447.1z"/>
	<path class="st0" d="M310.6,447.1c-0.5,0-1.1-0.1-1.6-0.3l-65.1-27.3c-2.2-0.9-3.3-3.6-2.4-5.9c0.9-2.3,3.5-3.4,5.7-2.5l65.1,27.3
		c2.2,0.9,3.3,3.7,2.4,5.9C314,446,312.3,447.1,310.6,447.1z"/>
</g>
<path class="st0" d="M154.9,396c2.3-0.7,70.5,185.4,70.5,185.4s-53.7,1.4-55,0c-1.3-1.4-4.1-20.9-4.1-20.9l-13.2-27.3l8.8-25.4
	l-51-69.8L154.9,396z"/>
<path class="st0" d="M335.3,396l-72.7,185.9c0,0,54.3,0.3,52.4-1.6c-1.9-1.9,22.5-45.9,22.5-45.9l-7.6-37.3l50.4-54.8L335.3,396z"/>
<path class="st0" d="M374.9,66.8c0,0-70.4,105.4-213,125c-81.7,12.2-87.3,8.4-87.3,8.4s-5-66.2,27.4-117.7S197.4,5.5,244.9,6.2
	S343.8,29.8,374.9,66.8z"/>
</svg>
