<svg width="0" height="0" class="hidden">
  <symbol version="1.1" id="ic_arrow" xmlns="http://www.w3.org/2000/svg" xmlns:xlink="http://www.w3.org/1999/xlink" x="0px" y="0px" xml:space="preserve" viewBox="0 0 39.3 25.7">
    <g>
      <path d="M3.4,15h34.4c0.8,0,1.5-0.7,1.5-1.5S38.7,12,37.8,12H3.4c-0.8,0-1.5,0.7-1.5,1.5S2.6,15,3.4,15z" fill="currentColor"></path>
    </g>
    <g>
      <path d="M12.5,25.7c0.4,0,0.8-0.2,1.1-0.5c0.6-0.6,0.6-1.5,0-2.1l-10-9.7l10-10.9c0.6-0.6,0.5-1.6-0.1-2.1
		c-0.6-0.6-1.6-0.5-2.1,0.1l-11,12c-0.5,0.6-0.5,1.5,0.1,2.1l11,10.7C11.7,25.6,12.1,25.7,12.5,25.7z" fill="currentColor"></path>
    </g>
  </symbol>
  <symbol version="1.1" id="ic_calendar" xmlns="http://www.w3.org/2000/svg" xmlns:xlink="http://www.w3.org/1999/xlink" x="0px" y="0px" xml:space="preserve" viewBox="0 0 86 88">
    <g transform="translate(0,-952.36218)">
      <path d="M23,952.4c-0.6,0-1,0.4-1,1v13.1c-3.4,0.5-6,3.4-6,6.9c0,3.9,3.1,7,7,7c3.9,0,7-3.1,7-7c0-3.5-2.6-6.4-6-6.9v-13.1
		C24,952.8,23.6,952.4,23,952.4z M63,952.4c-0.6,0-1,0.4-1,1v13.1c-3.4,0.5-6,3.4-6,6.9c0,3.9,3.1,7,7,7c3.9,0,7-3.1,7-7
		c0-3.5-2.6-6.4-6-6.9v-13.1C64,952.8,63.6,952.4,63,952.4z M9,958.4c-5,0-9,4-9,9v63.9c0,5,4,9,9,9H77c5,0,9-4,9-9v-63.9
		c0-5-4-9-9-9h-6c-0.5,0-1,0.5-1,1s0.5,1,1,1h6c3.9,0,7,3.1,7,7v19H2v-19c0-3.9,3.1-7,7-7h6c0.5,0,1-0.5,1-1s-0.5-1-1-1
		C15,958.4,9,958.4,9,958.4z M31,958.4c-0.6,0-1,0.4-1,1c0,0.6,0.4,1,1,1h24c0.6,0,1-0.4,1-1c0-0.6-0.4-1-1-1H31z M23,968.4
		c2.8,0,5,2.2,5,5s-2.2,5-5,5c-2.8,0-5-2.2-5-5S20.3,968.4,23,968.4z M63,968.4c2.8,0,5,2.2,5,5s-2.2,5-5,5c-2.8,0-5-2.2-5-5
		S60.3,968.4,63,968.4z M2,988.4h82v43c0,3.9-3.1,7-7,7H9c-3.9,0-7-3.1-7-7V988.4z" fill=""></path>
    </g>
  </symbol>
  <symbol version="1.1" id="ic_check" xmlns="http://www.w3.org/2000/svg" xmlns:xlink="http://www.w3.org/1999/xlink" x="0px" y="0px" xml:space="preserve" viewBox="0 0 25.8 22.3">
    <path d="M25.2,0C17.3,4.8,11.6,10.9,9,13.9L2.8,9L0,11.3l10.8,11c1.9-4.8,7.8-14.1,15-20.7L25.2,0z" fill="currentColor"></path>
  </symbol>
  <symbol version="1.1" id="ic_email" xmlns="http://www.w3.org/2000/svg" xmlns:xlink="http://www.w3.org/1999/xlink" x="0px" y="0px" xml:space="preserve" viewBox="0 0 56 55.5">
    <g>
      <polygon points="0.6,20.5 5,24.2 5,17.2 	" fill="currentColor"></polygon>
      <polygon points="0,54.4 19.2,38.5 0,22.6 	" fill="currentColor"></polygon>
      <path d="M7,25.8l13.8,11.4l5.3-4.4c1.1-0.9,2.7-0.9,3.8,0l5.3,4.4L49,25.8V6.5H7V25.8z M13,13.5c0-2.8,2.2-5,5-5h20
		c2.8,0,5,2.2,5,5v8c0,2.8-2.2,5-5,5h-5.5l-3.7,4.6c-0.3,0.4-1,0.5-1.4,0.2c-0.1,0-0.1-0.1-0.2-0.2l-3.7-4.6H18c-2.8,0-5-2.2-5-5
		V13.5z" fill="currentColor"></path>
      <path d="M18,24.5h6c0.3,0,0.6,0.1,0.8,0.4l3.2,4l3.2-4c0.2-0.2,0.5-0.4,0.8-0.4h6c1.7,0,3-1.3,3-3v-8c0-1.7-1.3-3-3-3H18
		c-1.7,0-3,1.3-3,3v8C15,23.1,16.3,24.5,18,24.5z M20,12.5h16c0.6,0,1,0.4,1,1s-0.4,1-1,1H20c-0.6,0-1-0.4-1-1S19.4,12.5,20,12.5z
		 M20,16.5h16c0.6,0,1,0.4,1,1s-0.4,1-1,1H20c-0.6,0-1-0.4-1-1S19.4,16.5,20,16.5z M20,20.5h16c0.6,0,1,0.4,1,1s-0.4,1-1,1H20
		c-0.6,0-1-0.4-1-1S19.4,20.5,20,20.5z" fill="currentColor"></path>
      <polygon points="51,24.2 55.4,20.5 51,17.2 	" fill="currentColor"></polygon>
      <polygon points="56,22.6 36.8,38.5 56,54.4 	" fill="currentColor"></polygon>
      <path d="M27.4,0.2l-5.7,4.3h12.5l-5.7-4.3C28.3-0.1,27.8-0.1,27.4,0.2z" fill="currentColor"></path>
      <path d="M28.6,34.3c-0.4-0.3-0.9-0.3-1.3,0L1.8,55.5h52.4L28.6,34.3z" fill="currentColor"></path>
    </g>
  </symbol>
  <symbol version="1.1" id="ic_list" xmlns="http://www.w3.org/2000/svg" xmlns:xlink="http://www.w3.org/1999/xlink" x="0px" y="0px" xml:space="preserve" viewBox="0 0 86.8 95.7">
    <path d="M0.2,42.3l22.1,22.1L86.8,0l-0.1,27.9L21.2,95.7L0,70.5L0.2,42.3z" fill="currentColor"></path>
  </symbol>
  <symbol version="1.1" id="ic_map" xmlns="http://www.w3.org/2000/svg" xmlns:xlink="http://www.w3.org/1999/xlink" x="0px" y="0px" xml:space="preserve" viewBox="0 0 74 90">
    <g transform="translate(0,-952.36218)">
      <path d="M54.6,952.5c11.6,7.2,19.4,20.2,19.4,34.9c0,22.3-17.8,40.4-40,41v5h11c0.5,0,0.8,0.3,1,0.7l2,7c0.2,0.6-0.3,1.3-1,1.3H19
		c-0.6,0-1.1-0.7-1-1.3l2-7c0.1-0.4,0.5-0.7,1-0.7h11v-5c-5.5-0.1-10.7-1.3-15.4-3.4c-0.5-0.2-0.7-0.8-0.5-1.3
		c0.2-0.5,0.9-0.7,1.3-0.5c4.8,2.1,10,3.3,15.6,3.3c21.6,0,39-17.4,39-39c0-14-7.4-26.3-18.4-33.2c-0.4-0.2-0.6-0.7-0.5-1.1
		C53.4,952.2,54.2,952.3,54.6,952.5z M33,954.4c18.2,0,33,14.8,33,33c0,18.2-14.8,33-33,33c-18.2,0-33-14.8-33-33
		c0-13.6,8.3-25.3,20-30.3c0.1-0.1,0.1-0.2,0.2-0.2l0.2,0.1C24.2,955.3,28.5,954.4,33,954.4z M33,956.4c-4.1,0-8,0.8-11.6,2.3
		c-2.4,4-2.3,8.1-2.4,10.7c-0.1,3.1,1.3,5,2.8,7.5c0.9,1.5,2.5,2.8,3.9,4.1s2.9,2.4,3.2,4.2c0.5,2.6,0.9,5.5,1.8,7.7
		c0.4,1.1,1,2,1.7,2.6c0.7,0.6,1.4,0.9,2.6,0.9c1,0,1.7-0.3,2.3-0.9c0.7-0.6,1.2-1.5,1.8-2.6c1.4-2.7,1.6-4.9,1.6-7.2
		c0-2.3-0.2-4.8,0.3-7.5c0.6-2.8,2.2-4.6,3.6-6.1c1.4-1.5,2.4-2.7,2.4-4.7c0-4.4-1.1-7.3-3.6-9.2C40.1,957,36.6,956.4,33,956.4z
		 M47.4,959.9c1.1,2,1.6,4.5,1.6,7.4c0,2.7-1.5,4.4-2.9,6s-2.7,3-3.2,5.2c-0.5,2.4-0.3,4.6-0.3,7.1c0,2.5-0.3,5.2-1.8,8.2
		c-0.6,1.2-1.3,2.3-2.3,3.2c-1,0.8-2.2,1.4-3.6,1.4c-1.6,0-2.9-0.6-3.9-1.4s-1.7-2.1-2.2-3.3c-1-2.6-1.4-5.6-1.8-8
		c-0.2-0.8-1.2-1.9-2.6-3.1c-1.4-1.2-3.1-2.7-4.3-4.6c-1.5-2.4-3.2-4.8-3.2-8.5c0-2-0.1-5.6,1.4-9.3C8.7,965.2,2,975.5,2,987.4
		c0,4.6,1,9,2.8,12.9c2.3-1.4,5.7-1.7,9.1-1.9c0,0,0,0,0.1,0c4.8,0,8.2,1.6,9.4,4.2c1.3,2.6,0.2,5.8-2.7,8.4l0,0c0,0,0,0-0.1,0
		c-1.5,1.5-2.8,2.3-3.8,2.8c4.7,2.8,10.2,4.5,16.1,4.5c17.1,0,31-13.9,31-31C64,975.4,57.3,965.1,47.4,959.9L47.4,959.9z
		 M14.1,1000.4C14.1,1000.4,14.1,1000.4,14.1,1000.4c-3.5,0.2-6.9,0.8-8.4,1.7c2.3,4.2,5.4,7.8,9.3,10.6v-0.3c0,0,0.2,0,1-0.3
		c0.8-0.3,1.9-1,3.3-2.4c0,0,0,0,0.1,0c2.5-2.3,3.1-4.5,2.2-6.2C20.9,1001.8,18.4,1000.4,14.1,1000.4L14.1,1000.4z M44.2,1035.4
		H21.8l-1.4,5h25.4L44.2,1035.4z" fill="currentColor"></path>
    </g>
  </symbol>
  <symbol version="1.1" id="ic_operator" xmlns="http://www.w3.org/2000/svg" xmlns:xlink="http://www.w3.org/1999/xlink" x="0px" y="0px" xml:space="preserve" viewBox="0 0 85.3 99.9">
    <path d="M85.2,98.9l-1.9-5.7c-1.6-4.9-5.8-8.6-10.9-9.7l-9.8-2l-5.9-4.2l-2.1-2.5l0,0c10.8-2,18.1-10.1,18.1-20.7v-0.5h0.5
	c3.4,0,6.1-2.8,6.1-6.1v-8.4c0-3.4-2.8-6.1-6.1-6.1h-0.5v-3c0-16.6-13.5-30-30-30s-30,13.5-30,30v3h-0.5c-3.4,0-6.1,2.8-6.1,6.1v8.4
	c0,3.4,2.8,6.1,6.1,6.1h0.5c0.1,0.7,0.7,1.3,1.5,1.3s1.5-0.7,1.5-1.5V29.9c0-14.9,12.1-27,27-27s27,12.1,27,27v24.2
	c0,9.2-6.2,16-15.7,17.7V66c0.6-0.5,1.2-1,1.7-1.5c6.1-5.5,9.4-12.4,9.4-16v-4c0.9,0.1,1.8,0.1,2.7,0.2l0,0c0.4,0,0.7-0.3,0.8-0.7
	c0-0.4-0.3-0.8-0.7-0.8c-8.2-0.3-16.1-3-22.8-7.8S33.4,23.9,30.6,16.2c-0.1-0.4-0.6-0.6-1-0.5s-0.6,0.6-0.5,1
	c0.3,0.9,0.7,1.8,1.1,2.7c-5.9,2-10,7.6-10,13.9v15.1c0,4,3,9.4,8.2,14.7c0.8,0.8,1.6,1.6,2.6,2.5V75l-2.6,2.3l-6,4.2l-9.8,2
	c-5.1,1.1-9.2,4.8-10.9,9.7L0,98.9c-0.1,0.4,0.1,0.8,0.5,1c0.1,0,0.2,0,0.2,0c0.3,0,0.6-0.2,0.7-0.5l1.9-5.7C4.7,89.3,8.5,86,13,85
	l10.1-2.1l5.8-4l13.3,11.4c0.1,0.1,0.3,0.2,0.5,0.2s0.4-0.1,0.5-0.2l13.2-11.4l5.8,4L72.3,85c4.5,0.9,8.3,4.3,9.7,8.7l1.9,5.7
	c0.1,0.3,0.4,0.5,0.7,0.5c0.1,0,0.2,0,0.2,0C85.2,99.7,85.4,99.3,85.2,98.9z M7.6,47.4V39c0-2.5,2.1-4.6,4.6-4.6h0.5V52h-0.5
	C9.6,52.1,7.6,50,7.6,47.4z M73.2,34.5c2.5,0,4.6,2.1,4.6,4.6v8.4c0,2.5-2.1,4.6-4.6,4.6h-0.5V34.5H73.2z M29.5,62
	c-4.9-4.9-7.8-10-7.8-13.6V33.3c0-5.7,3.7-10.8,9.1-12.6c3.1,6.3,7.6,11.7,13.3,15.8c5.8,4.2,12.4,6.8,19.4,7.8v4.1
	c0,3.3-3.3,9.8-8.9,14.9c-2.8,2.5-6.7,6-12,6C36.8,69.4,32.6,65.1,29.5,62z M31,77v1.6l-0.9-0.7L31,77z M42.6,88.6l-10.1-8.7v-13
	c2.7,2.1,6,4,10.2,4l0,0c4,0,7.2-1.7,9.8-3.7V72c-1,0.1-2,0.2-3.1,0.2h-6.8c-0.8,0-1.5,0.7-1.5,1.5c0,0.6,0.4,1.2,0.9,1.4
	c0.3,1.3,1.3,2.2,2.6,2.2h2.9c1.2,0,2.2-0.9,2.5-2.1c0.8,0,1.7-0.1,2.5-0.2v5.1L42.6,88.6z M48.4,75.3c-0.2,0.3-0.5,0.6-0.9,0.6
	h-2.9c-0.4,0-0.7-0.2-0.9-0.6H48.4z M54,78.9v-2.4l1.2,1.4L54,78.9z" fill="currentColor"></path>
  </symbol>
  <symbol version="1.1" id="ic_phone" xmlns="http://www.w3.org/2000/svg" xmlns:xlink="http://www.w3.org/1999/xlink" x="0px" y="0px" xml:space="preserve" viewBox="0 0 56 56">
    <g>
      <rect x="37" y="42" width="2" height="2" fill="currentColor"></rect>
      <rect x="45" y="42" width="2" height="2" fill="currentColor"></rect>
      <rect x="37" y="26" width="2" height="2" fill="currentColor"></rect>
      <rect x="37" y="34" width="2" height="2" fill="currentColor"></rect>
      <rect x="29" y="34" width="2" height="2" fill="currentColor"></rect>
      <rect x="29" y="26" width="2" height="2" fill="currentColor"></rect>
      <path d="M56,53c-0.9,0.7-1.9,1-3,1H3c-1.1,0-2.1-0.4-3-1v0c0,1.7,1.3,3,3,3h50C54.7,56,56,54.7,56,53L56,53z" fill="currentColor"></path>
      <rect x="29" y="42" width="2" height="2" fill="currentColor"></rect>
      <rect x="45" y="26" width="2" height="2" fill="currentColor"></rect>
      <rect x="29" y="14" width="19" height="4" fill="currentColor"></rect>
      <path d="M16.3,13.3l1.7-1.7V1c0-0.6-0.4-1-1-1H7C6.4,0,6,0.4,6,1v10.6l1.7,1.7C7.9,13.5,8,13.7,8,14v18c0,0.3-0.1,0.5-0.3,0.7
		L6,34.4V45c0,0.6,0.4,1,1,1h10c0.6,0,1-0.4,1-1V34.4l-1.7-1.7C16.1,32.5,16,32.3,16,32V14C16,13.7,16.1,13.5,16.3,13.3z" fill="currentColor"></path>
      <path d="M56,9c0-1.7-1.3-3-3-3H20v6c0,0.3-0.1,0.5-0.3,0.7L18,14.4v17.2l1.7,1.7c0.2,0.2,0.3,0.4,0.3,0.7v11c0,1.7-1.3,3-3,3H7
		c-1.7,0-3-1.3-3-3V34c0-0.3,0.1-0.5,0.3-0.7L6,31.6V14.4l-1.7-1.7C4.1,12.5,4,12.3,4,12V5.9L3,6c-1.6,0-3,1.4-3,3v40
		c0,1.7,1.3,3,3,3h50c1.7,0,3-1.3,3-3V9z M33,45c0,0.6-0.4,1-1,1h-4c-0.6,0-1-0.4-1-1v-4c0-0.6,0.4-1,1-1h4c0.6,0,1,0.4,1,1V45z
		 M33,37c0,0.6-0.4,1-1,1h-4c-0.6,0-1-0.4-1-1v-4c0-0.6,0.4-1,1-1h4c0.6,0,1,0.4,1,1V37z M33,29c0,0.6-0.4,1-1,1h-4
		c-0.6,0-1-0.4-1-1v-4c0-0.6,0.4-1,1-1h4c0.6,0,1,0.4,1,1V29z M41,45c0,0.6-0.4,1-1,1h-4c-0.6,0-1-0.4-1-1v-4c0-0.6,0.4-1,1-1h4
		c0.6,0,1,0.4,1,1V45z M41,37c0,0.6-0.4,1-1,1h-4c-0.6,0-1-0.4-1-1v-4c0-0.6,0.4-1,1-1h4c0.6,0,1,0.4,1,1V37z M41,29
		c0,0.6-0.4,1-1,1h-4c-0.6,0-1-0.4-1-1v-4c0-0.6,0.4-1,1-1h4c0.6,0,1,0.4,1,1V29z M49,45c0,0.6-0.4,1-1,1h-4c-0.6,0-1-0.4-1-1v-4
		c0-0.6,0.4-1,1-1h4c0.6,0,1,0.4,1,1V45z M49,37c0,0.6-0.4,1-1,1h-4c-0.6,0-1-0.4-1-1v-4c0-0.6,0.4-1,1-1h4c0.6,0,1,0.4,1,1V37z
		 M49,29c0,0.6-0.4,1-1,1h-4c-0.6,0-1-0.4-1-1v-4c0-0.6,0.4-1,1-1h4c0.6,0,1,0.4,1,1V29z M50,19c0,0.6-0.4,1-1,1H28
		c-0.6,0-1-0.4-1-1v-6c0-0.6,0.4-1,1-1h21c0.6,0,1,0.4,1,1V19z" fill="currentColor"></path>
      <rect x="45" y="34" width="2" height="2" fill="currentColor"></rect>
    </g>
  </symbol>
  <symbol version="1.1" id="ic_sale" xmlns="http://www.w3.org/2000/svg" xmlns:xlink="http://www.w3.org/1999/xlink" x="0px" y="0px" xml:space="preserve" viewBox="0 0 8.5 4.6">
    <g>
      <path d="M0.3,0C0.1,0,0,0.1,0,0.3v4.1c0,0.1,0.1,0.3,0.3,0.3c0,0,0,0,0,0h6c0.1,0,0.1,0,0.2-0.1l2-2.1c0.1-0.1,0.1-0.3,0-0.4
		l-2-2.1C6.4,0,6.3,0,6.2,0L0.3,0z M1.5,1.1c0.4,0,0.7,0.3,0.7,0.7S1.9,2.5,1.5,2.5c-0.4,0-0.7-0.3-0.7-0.7S1.2,1.1,1.5,1.1z M3,1.1
		c0.1,0,0.3,0.1,0.3,0.3c0,0,0,0.1,0,0.1l-1,1.7C2.2,3.3,2.1,3.4,1.9,3.3C1.8,3.2,1.8,3.1,1.8,2.9l0,0l1-1.7C2.8,1.2,2.9,1.1,3,1.1
		C3,1.1,3,1.1,3,1.1L3,1.1z M1.5,1.6c-0.1,0-0.1,0.1-0.1,0.2c0,0.1,0.1,0.1,0.1,0.1c0.1,0,0.2-0.1,0.2-0.1C1.7,1.7,1.6,1.6,1.5,1.6z
		 M6.1,1.7c0.2,0,0.3,0.1,0.5,0.2c0.3,0.3,0.3,0.7,0,0.9c-0.3,0.3-0.7,0.3-1,0c-0.3-0.3-0.3-0.7,0-0.9C5.7,1.7,5.9,1.7,6.1,1.7z
		 M3.6,2.2c0.4,0,0.7,0.3,0.7,0.7c0,0.4-0.3,0.7-0.7,0.7S2.9,3.2,2.9,2.9C2.9,2.5,3.2,2.2,3.6,2.2z M3.6,2.7c-0.1,0-0.2,0.1-0.2,0.2
		C3.4,3,3.5,3,3.6,3C3.6,3,3.7,3,3.7,2.9C3.7,2.8,3.6,2.7,3.6,2.7z" fill=""></path>
    </g>
  </symbol>
  <symbol version="1.1" id="ic_send" xmlns="http://www.w3.org/2000/svg" xmlns:xlink="http://www.w3.org/1999/xlink" x="0px" y="0px" xml:space="preserve" viewBox="0 0 31.8 25.7">
    <g>
      <g transform="translate(0.000000, -3.000000)">
        <g>
          <path d="M5.1,14.8L2.5,5.7l25.6,10.2L2.5,26l1.1-4c0.2-0.5-0.2-1.1-0.7-1.2c-0.5-0.2-1.1,0.2-1.2,0.7L0,27.4
				c-0.2,0.8,0.6,1.5,1.3,1.2l29.8-11.8c0.8-0.3,0.8-1.5,0-1.9L1.4,3.1C0.6,2.8-0.2,3.5,0,4.3l3.3,11.8c0.1,0.4,0.5,0.7,1,0.7h8.3
				c0.6,0,1-0.4,1-1c0-0.6-0.4-1-1-1H5.1z" fill="currentColor"></path>
        </g>
      </g>
    </g>
  </symbol>
  <symbol version="1.1" id="ic_user" xmlns="http://www.w3.org/2000/svg" xmlns:xlink="http://www.w3.org/1999/xlink" x="0px" y="0px" xml:space="preserve" viewBox="0 0 487.6 605.1">
    <path d="M112.1,94.5c-3.9,14.6-6.7,28.3-8.7,41.5c-2,15.4-2.5,30.9-2.2,46c-3.1,3.6-5.6,7.9-7.6,12.6c-2,3.9-3.1,8.7-3.6,14.6
	c-0.6,5.9,0.3,12.3,2.8,18.8c2.2,6.5,4.5,11.8,7.3,15.4c2.5,3.6,4.8,6.5,7.3,8.4c2.8,1.7,5.6,3.1,8.4,4.2c0.3,1.2,0.7,2.4,1,3.6
	c11,77,79.8,136.4,127.1,136.4c47.4,0,116.8-60,127.2-137.5c0.3-1,0.6-2,0.8-3c4.2-1.1,7.9-3.1,11.2-6.5c2.8-2.8,5.6-7,8.4-12.1
	c2.8-5.1,4.5-12.1,5.6-20.5c1-6.3,0.7-11.9-0.4-16.4h0c-1.1-4.5-2.5-8.1-3.9-10.9c-2-3.1-4.2-5.6-6.4-7.6c0.6-16-0.3-32-2.8-48
	c-2.5-13.5-5.9-28.3-10.9-44c-5.1-16-12.6-30-23-42.9c-9-11.2-23-21.9-41.8-31.7C288.7,5,267.4,0,243.3,0c-9,0-18.5,0.8-28.3,2.2
	c-9.8,1.4-19.9,4.2-29.7,8.1c-9.8,3.9-19.6,9.5-28.9,16.6c-9.5,7-18,16.3-25.5,27.5C122.2,66.7,116,80.2,112.1,94.5z" fill="currentColor"></path>
    <path d="M485.9,497.2c-0.8-9.7-2.2-17.8-4.2-24.3v0c-3.9-10.4-10.1-18.8-18.8-27.2c-8.7-6.5-18.5-12.1-29.7-16.3
	s-22.7-7.9-34.8-10.9c-9.9-2.5-25.7-8.3-31-10.3c-1.2-0.4-2.3-1-3.4-1.6L345.3,396c-3.6-2.1-8.2-1.1-10.7,2.3
	c-9.9,13.8-34.7,48.3-48.6,68.1c-3.2,4.6-10,4.3-12.9-0.4c-6.9-11.3-13.8-21.8-20.7-33.2c-2.8-4.7-9.5-5-12.8-0.6
	c-8.9,11.9-16.8,23.7-25.7,35.6c-3.1,4.2-9.5,4.1-12.5-0.2c-16-22.8-33-45.6-49-68.4c-2.4-3.5-7.2-4.4-10.7-1.9
	c-0.1,0.1-0.2,0.2-0.3,0.2c-2.4,1.8-5.1,3.7-8,5.7c-10.7,7.3-23,12.3-37,16c-14,3.6-27.5,7.6-40.7,12.3
	C42.5,436.3,31,442.4,21.5,450s-15.7,18.8-18,33.9C-0.4,509.7-1,531,1.3,547.6c2.5,16.6,5.6,26.4,9.3,29.7c2.5,2,8.1,3.9,17.4,6.2
	c9.3,2.2,20.5,4.2,33.9,6.5c13.5,2,28.3,3.9,44.3,5.6c16,1.4,32.3,3.1,48.8,4.5c16.6,1.4,32.5,2.5,47.7,3.6
	c15.4,0.8,28.9,1.4,40.7,1.4s25.5-0.6,41-1.4c15.7-1.1,31.7-2.2,48.5-3.6s33.4-3.1,49.9-5.3s31.7-4.2,45.4-6.7
	c13.5-2.2,25-4.8,34.2-7.6c9.3-2.8,14.6-5.6,16.6-8.4c2.8-4.2,5.1-10.7,6.4-19.1c1.7-8.4,2.2-17.7,2.2-27.2S487,506.4,485.9,497.2z" fill="currentColor"></path>
  </symbol>

  <symbol version="1.1" id="ic_loupe" xmlns="http://www.w3.org/2000/svg" xmlns:xlink="http://www.w3.org/1999/xlink" x="0px" y="0px"
    viewBox="0 0 512 512" style="enable-background:new 0 0 512 512;" xml:space="preserve">
    <g>
      <g>
        <path d="M278.718,0C150.086,0,45.435,104.65,45.435,233.282c0,55.642,19.592,106.789,52.228,146.928L0,477.872L34.128,512
          l97.663-97.663c40.137,32.635,91.284,52.228,146.926,52.228C407.35,466.565,512,361.914,512,233.282S407.35,0,278.718,0z
          M278.718,418.299c-102.018,0-185.017-82.999-185.017-185.017S176.699,48.265,278.718,48.265s185.017,82.999,185.017,185.017
          S380.736,418.299,278.718,418.299z"/>
      </g>
    </g>
  </symbol>
  <symbol xmlns:dc="http://purl.org/dc/elements/1.1/" id="ic_globe" xmlns:cc="http://creativecommons.org/ns#" xmlns:rdf="http://www.w3.org/1999/02/22-rdf-syntax-ns#" xmlns:svg="http://www.w3.org/2000/svg" xmlns="http://www.w3.org/2000/svg" xmlns:sodipodi="http://sodipodi.sourceforge.net/DTD/sodipodi-0.dtd" xmlns:inkscape="http://www.inkscape.org/namespaces/inkscape" version="1.1" x="0px" y="0px" viewBox="0 0 100 125"><g transform="translate(0,-952.36218)"><path style="text-indent:0;text-transform:none;direction:ltr;block-progression:tb;baseline-shift:baseline;color:#000000;enable-background:accumulate;" d="m 67.625,957.48844 c 11.6384,7.2339 19.375,20.1716 19.375,34.875 0,22.29396 -17.8345,40.43176 -40,40.96886 l 0,5.0312 11,0 c 0.5448,0.011 0.8023,0.3125 0.9688,0.7188 l 2,7 c 0.1748,0.5966 -0.3472,1.2868 -0.9688,1.2812 l -28,0 c -0.6216,0.01 -1.1436,-0.6846 -0.9688,-1.2812 l 2,-7 c 0.1214,-0.4142 0.5372,-0.7227 0.9688,-0.7188 l 11,0 0,-5.0312 c -5.468,-0.1329 -10.67,-1.3357 -15.4062,-3.4063 -0.4862,-0.2103 -0.7355,-0.846 -0.5219,-1.3308 0.2136,-0.4848 0.851,-0.7298 1.3343,-0.5129 4.7801,2.0896 10.0427,3.2812 15.5938,3.2812 21.551,0 39,-17.4491 39,-39.00006 0,-14.0018 -7.3671,-26.2754 -18.4375,-33.1562 -0.3924,-0.216 -0.602,-0.7178 -0.4799,-1.1488 0.3374,-0.8987 1.1196,-0.7307 1.5424,-0.57 z M 46,959.36344 c 18.2135,0 33,14.7864 33,33 0,18.21356 -14.7865,33.00006 -33,33.00006 -18.2136,0 -33,-14.7865 -33,-33.00006 0,-13.6108 8.257,-25.3011 20.0312,-30.3438 0.055,-0.082 0.099,-0.1685 0.1563,-0.25 l 0.1563,0.125 c 3.8989,-1.6227 8.1724,-2.5312 12.6562,-2.5312 z m 0,2 c -4.1191,0 -8.0308,0.8255 -11.625,2.2812 -2.4494,3.9908 -2.3177,8.094 -2.375,10.7188 -0.068,3.1096 1.3333,5.0212 2.8438,7.4688 0.9459,1.533 2.4725,2.8352 3.9062,4.0937 1.4337,1.2585 2.8636,2.4434 3.2188,4.2187 0.5118,2.5599 0.8908,5.5268 1.75,7.7188 0.4295,1.096 0.9871,1.9768 1.6562,2.56256 0.6691,0.5857 1.4481,0.9398 2.625,0.9375 0.959,0 1.6531,-0.3222 2.3125,-0.9062 0.6594,-0.58416 1.2315,-1.47956 1.7813,-2.56266 1.3503,-2.6611 1.5779,-4.9078 1.5937,-7.25 0.016,-2.3421 -0.188,-4.7892 0.3437,-7.5 0.5505,-2.8052 2.2287,-4.5866 3.5938,-6.125 1.3651,-1.5383 2.375,-2.7362 2.375,-4.6562 0,-4.3904 -1.1337,-7.2567 -3.625,-9.2188 -3.2456,-1.1519 -6.7322,-1.7812 -10.375,-1.7812 z m 14.4062,3.5625 c 1.08,2.0499 1.5938,4.5366 1.5938,7.4375 0,2.6514 -1.4863,4.4351 -2.875,6 -1.3887,1.5649 -2.7227,2.9774 -3.1562,5.1875 -0.4662,2.3758 -0.2646,4.6222 -0.2813,7.0937 -0.017,2.4716 -0.26,5.1586 -1.7813,8.1563 -0.6102,1.20286 -1.3291,2.31296 -2.2812,3.15636 -0.9521,0.8433 -2.1907,1.4033 -3.625,1.4062 -1.598,0 -2.93,-0.5555 -3.9375,-1.4375 -1.0075,-0.882 -1.6857,-2.06346 -2.1875,-3.34376 -1.0037,-2.5608 -1.3556,-5.5911 -1.8438,-8.0313 -0.1624,-0.8122 -1.1877,-1.8908 -2.5937,-3.125 -1.406,-1.2342 -3.1035,-2.6542 -4.2813,-4.5625 -1.4571,-2.3616 -3.2384,-4.7854 -3.1562,-8.5312 0.044,-2.046 -0.081,-5.6069 1.4375,-9.3438 -9.7844,5.2102 -16.4375,15.507 -16.4375,27.375 0,4.6251 1.0311,8.99696 2.8438,12.93746 2.2638,-1.3639 5.6667,-1.7298 9.125,-1.9374 0.021,-6e-4 0.042,-6e-4 0.062,0 4.839,0 8.167,1.5942 9.4376,4.2187 1.2626,2.6085 0.1831,5.8205 -2.7188,8.4374 l 0.031,0.031 c -0.019,0.019 -0.044,0.013 -0.062,0.031 -1.5059,1.4888 -2.8257,2.3436 -3.8126,2.7813 4.6871,2.8466 10.2044,4.5 16.0938,4.5 17.1327,0 31,-13.8674 31,-31.00006 0,-11.9274 -6.729,-22.2526 -16.5938,-27.4375 z m -33.3124,40.43746 c -0.022,0 -0.041,0 -0.063,0 -3.4226,0.2099 -6.7928,0.769 -8.3124,1.7188 2.2655,4.1953 5.4496,7.814 9.3124,10.5625 l 0,-0.2812 c 0,0 0.2421,0.013 1,-0.3125 0.758,-0.3251 1.9005,-0.9991 3.3126,-2.4064 0.02,-0.011 0.041,-0.021 0.062,-0.031 2.531,-2.258 3.051,-4.5016 2.25,-6.1562 -0.7966,-1.646 -3.2089,-3.0786 -7.5624,-3.0938 z m 30.1562,35.0001 -22.5,0 -1.4375,5 25.375,0 z" fill="" fill-opacity="1" stroke="none" marker="none" visibility="visible" display="inline" overflow="visible"/></g><text x="0" y="115" fill="#000000" font-size="5px" font-weight="bold" font-family="'Helvetica Neue', Helvetica, Arial-Unicode, Arial, Sans-serif"></text><text x="0" y="120" fill="" font-size="5px" font-weight="bold" font-family="'Helvetica Neue', Helvetica, Arial-Unicode, Arial, Sans-serif"></text></symbol>

  <symbol version="1.1" id="college" xmlns="http://www.w3.org/2000/svg" xmlns:xlink="http://www.w3.org/1999/xlink" viewBox="0 0 817.3 838.3">
    <path d="M259.2,309.9V33.2H81.3v462.9l3,4.4L259.2,309.9z M817.3,838.3L495.1,404.6L378.9,531.2l224.7,307.1H817.3z
      M10.3,770.5c24.2-11.9,36.2-17.9,36.2-17.9c-8.7-11.3-19.8-20.5-32.6-26.9c-8.8,24.6-13.2,36.9-13.2,36.9
    C-1.6,772,1.6,774.6,10.3,770.5z M66.4,742c108.8-55.6,163.2-83.4,163.2-83.4c-23.8-9.7-37.4-34.8-32.5-59.9
    c-26.4-0.4-48.7-19.4-53.4-45.2c-24.2,8.4-51.1-0.4-65.6-21.5C39.9,646.5,20.9,703.8,20.9,703.8C40,710.9,56.1,724.4,66.4,742z
      M491.7,374.5l0.7-0.7l9.6-10.5l9.9-10.7l10.1-11l10.3-11.2l10.5-11.5l10.7-11.7l10.9-11.9l11.2-12.2l11.4-12.4l11.6-12.6l11.8-12.9
    l12-13.1l12.2-13.3l12.4-13.6l12.7-13.8l12.9-14.1l13.1-14.3l13.3-14.5l13.5-14.8l13.8-15l79.6-86.7L574.5,0l-175,190.7l0,0
    L260.4,342.4l-51.1,55.7L195,413.6l-4.7,5.1l-6.9,7.5l-7.2,7.9l-5.1,5.6l-6.2,6.8l-8.4,9.2l-1.8,2l-12.6,13.8l-0.7,0.8l-8.2,8.9
    l-0.5,0.6l-1.5,1.7l-31.3,34.1c7.8,11.3,22.4,16.1,35.4,11.6l25.4-8.8l122.3-133.3l5-5.4L592.4,49.4l119.1,16.5l-242.2,264l-5,5.4
    L223.8,597.5l-1.2,6.2c-2.5,12.9,4.6,25.9,16.8,30.9l9.9,4l33.4-36.4l1.1-1.2l1.1-1.2l2-2.2l6.6-7.2l0,0l5.5-6l6.5-7.1l2.6-2.9
    l3.4-3.7l4.9-5.3l4.3-4.7l2.3-2.5l4.7-5.1l6.9-7.5l2-2.2l12.3-13.5l2.8-3l0.7-0.8L491.7,374.5z M207.4,572.9l395.2-427.2l-55.9-8
    l-377.6,410l0.2,1.1c2.5,13.6,14.3,23.6,28.2,23.8L207.4,572.9z M561.5,116.9l64,9.1l39.9-43.5l-64.2-8.9L561.5,116.9z"></path>
  </symbol>

  <symbol version="1.1" id="bakal" xmlns="http://www.w3.org/2000/svg" xmlns:xlink="http://www.w3.org/1999/xlink" x="0px" y="0px" xml:space="preserve" viewBox="0 0 643.4 942.8">
    <path d="M75.3,936.8c-8.4-21.7-12.7-32.6-12.7-32.6c12.2-2.2,24.8-1.6,36.7,1.8c-8.9,20.9-13.3,31.3-13.3,31.3
    C82.1,944.7,78.5,944.5,75.3,936.8 M56.2,885.9C19.3,786.8,0.9,737.3,0.9,737.3c20.9,7.7,44.4-0.4,56.1-19.4
    c17.1,15.1,42.6,16,60.8,2.2c10.5,19.5,33,29.6,54.6,24.5c-43,95.6-64.5,143.4-64.5,143.4C91.4,881.3,73.2,880.6,56.2,885.9z
      M0.4,402.4v-0.8l0-12.3l0-12.6l0-12.9l0-13.2l0-13.5l0-13.7l0-14l0-14.3l0-14.6l0-14.8l0-15.1l0-15.4l0-15.7l0-15.9l0-16.2l0-16.5
    l0-16.8l0-17.1l0-17.3l0-17.6L0.9,0l167,114.4l-0.3,224.2h0l-0.2,178.3l-0.1,65.5l0,18.2l0,6l0,8.8l0,9.3l0,6.5l0,8l0,10.8v2.3
    l0,16.2v0.9l0,10.4v0.7l0,2l0,40.1c-11.6,2.7-23.8-2.7-29.4-13.2l-11-20.5l0.2-156.6V526l0.5-390.4l-86-58.9L40.9,387l0,6.3
    l-0.4,308.2l-2.9,4.7c-6,9.7-18.2,14-28.9,10L0,712.9l0.1-42.8v-1.4v-1.4l0-2.6l0-8.4v-0.1l0-7.1l0-8.3l0-3.3v-4.4l0-6.2v-5.5l0-3
    l0-6l0-8.8V601l0-15.8v-3.6l0-0.9L0.4,402.4z M65.5,695.4l-1.5-504.1l40.5,27.5l0.3,482.8l-0.8,0.6c-9.6,7.3-23,6.8-32.1-1.2
    L65.5,695.4z"></path>
    <g>
    <polygon points="193.3,119.2 193.6,262 564.2,262 564.2,119.2"></polygon>
    <path d="M557.6,471.9c-56.8-44.4-130.7-66-220.4-66H192.7c0,4.1,0.9,139.6,0.9,139.6h143.5c72.6,0,125.4,34.6,125.4,95.2
      S409.7,737,337.1,737H225.3l-78.6,139.6h190.4c89.8,0,163.7-21.6,220.4-64.9c56.8-44.4,85.8-100.6,85.8-170.9
      C643.4,571.5,614.3,515.2,557.6,471.9z"></path>
    </g>
  </symbol>

  <symbol version="1.1" id="higher" xmlns="http://www.w3.org/2000/svg" xmlns:xlink="http://www.w3.org/1999/xlink" x="0px" y="0px" xml:space="preserve" viewBox="0 0 763.1 923">
    <path d="M227.1,389.5L0.2,729.6V561.3V27.7h416.8c16.4,0,32.2,0.7,47.4,2L352,200.3H192.8v189.2H227.1z M9,920.7
    c18.6-12.6,27.9-19,27.9-19c-8.5-8.4-18.8-14.7-30.1-18.5c-4.4,21.4-6.6,32.1-6.6,32.1C-0.7,923.2,2.2,925,9,920.7z M52,890.6
    c83.6-58.5,125.3-87.8,125.3-87.8c-20.8-5.3-35-24.5-33.8-45.8c-21.9,2.7-42.6-10.4-49.4-31.3c-19.1,9.8-42.4,5.6-56.7-10.3
    C19.1,814.7,10,864.2,10,864.2C26.6,867.9,41.5,877.2,52,890.6z M635.5,122.2l9.3-13.5l9.5-13.8l9.6-14L719.7,0H524.6L263.8,396.2
    l0,0l-97.6,141.4l-35.8,52l-10,14.5l-3.3,4.8l-4.8,7l-5.1,7.4l-3.6,5.2l-4.4,6.4l-5.9,8.6l-1.3,1.9L83.2,658l-0.5,0.7l-5.7,8.3
    l-0.4,0.5l-1.1,1.6L53.6,701c7.7,8.5,20.4,10.8,30.6,5.5l20-10.2L189.9,572l3.5-5L545.1,38.8h100.5
    c-159.3,240.3-316.6,477-480.1,714.1l-0.3,5.2c-0.6,11,6.8,20.9,17.5,23.6l8.7,2.2l23.4-33.9l0.8-1.1l0.8-1.1l1.4-2.1l4.6-6.7l0-0.1
    l3.9-5.6l4.6-6.6l1.8-2.7l2.4-3.5l3.4-4.9l3-4.4l1.6-2.4l3.3-4.8l4.8-7l1.4-2l8.7-12.5l2-2.8l0.5-0.7
    C393.9,490.5,511.3,317.4,635.5,122.2z M149.1,734.5l415.6-617.2l-47.2-0.2l-403,600.9l0.3,0.9c3.6,11,14.5,17.9,26.1,16.5
    L149.1,734.5z M763.1,677.2v-2.5c0-59.7-15-106.3-44.7-140c-29.8-33.7-70.8-60.3-122.6-79.9c16-8.5,31.2-18.8,45.2-30.7
    c14.1-11.9,26.3-25.8,37-41.6c10.7-15.8,19.1-33.5,25.5-53.1c6.4-19.6,9.6-42.2,9.6-67.8v-2.6c0-50.9-13.6-94.3-40.8-130.2
    l-8.3,11.9L392,553.2h29.4c51.4,0,88.6,8.7,111.7,26.2c23.1,17.5,34.7,41.1,34.7,70.9v2.6c0,33.2-12.4,57.8-37.2,73.5
    c-24.8,15.8-59.1,23.7-102.8,23.7H253.3l-135,163.2l-9.8,9.4h-0.3h104.8h214.1c50.3,0,96.3-5.1,137.9-15.3
    c41.3-10.2,76.8-25.6,106.4-46c29.3-20.5,52-46,67.9-76.7C755.2,753.9,763.1,718.1,763.1,677.2z"></path>
  </symbol>

  <symbol version="1.1" id="magistr" xmlns="http://www.w3.org/2000/svg" xmlns:xlink="http://www.w3.org/1999/xlink" x="0px" y="0px" xml:space="preserve" viewBox="0 0 748.5 942.8">
    <path d="M75.3,936.8c-8.4-21.7-12.7-32.6-12.7-32.6c12.2-2.2,24.8-1.6,36.7,1.8c-8.9,20.9-13.3,31.3-13.3,31.3
    C82.1,944.7,78.5,944.5,75.3,936.8 M56.2,885.9C19.3,786.8,0.9,737.3,0.9,737.3c20.9,7.7,44.4-0.4,56.1-19.4
    c17.1,15.1,42.6,16,60.8,2.2c10.5,19.5,33,29.6,54.6,24.5c-43,95.6-64.5,143.4-64.5,143.4C91.4,881.3,73.2,880.6,56.2,885.9z
      M0.4,402.4v-0.8l0-12.3l0-12.6l0-12.9l0-13.2l0-13.5l0-13.7l0-14l0-14.3l0-14.6l0-14.8l0-15.1l0-15.4l0-15.7l0-15.9l0-16.2l0-16.5
    l0-16.8l0-17.1l0-17.3l0-17.6L0.9,0l167,114.4l-0.3,224.2h0l-0.2,178.3l-0.1,65.5l0,18.2l0,6l0,8.8l0,9.3l0,6.5l0,8l0,10.8v2.3
    l0,16.2v0.9l0,10.4v0.7l0,2l0,40.1c-11.6,2.7-23.8-2.7-29.4-13.2l-11-20.5l0.2-156.6V526l0.5-390.4l-86-58.9L40.9,387l0,6.3
    l-0.4,308.2l-2.9,4.7c-6,9.7-18.2,14-28.9,10L0,712.9l0.1-42.8v-1.4v-1.4l0-2.6l0-8.4v-0.1l0-7.1l0-8.3l0-3.3v-4.4l0-6.2v-5.5l0-3
    l0-6l0-8.8V601l0-15.8v-3.6l0-0.9L0.4,402.4z M65.5,695.4l-1.5-504.1l40.5,27.5l0.3,482.8l-0.8,0.6c-9.6,7.3-23,6.8-32.1-1.2
    L65.5,695.4z"></path>
    <g>
    <path d="M200.9,122.4l127.8,319.1c14.4,43.2,26.4,91.2,40.8,136.8h4.8c14.4-45.6,26.4-93.6,40.8-136.8l112.8-319.1h220.7v779.8
      H561.3V671.8c0-79.2,16.8-200.3,26.4-278.3h-4.8l-64.8,187.1l-96,257.9H311.8l-111-282.9V122.4z"></path>
    </g>
  </symbol>

  <symbol version="1.1" id="aspir" xmlns="http://www.w3.org/2000/svg" xmlns:xlink="http://www.w3.org/1999/xlink" x="0px" y="0px" xml:space="preserve" viewBox="0 0 836.7 957.6">
    <path d="M134,731.1c-25.1,8-52.4-2.8-65-25.8c-20.3,15.7-48.6,15.9-69,0.5c0.3,120.7,0.5,181.1,0.5,181.1c20.4,0.6,40,8.3,55.3,21.7
    c85.4-87.4,128-131.1,128-131.1C158.2,775.9,137.3,756.5,134,731.1z"></path>
    <path d="M0.9,909.9c-0.5,26.1-0.7,39.2-0.7,39.2c0.7,9.6,4.6,11.1,11.6,4.4c19.1-19,28.6-28.5,28.6-28.5
    C28.6,917,15.1,911.9,0.9,909.9z"></path>
    <path d="M91.3,691.8l0.6,1c6.7,12.1,21,17.8,34.3,13.6l9.4-3L374,172.5l-55.5,10.3L91.3,691.8z"></path>
    <path d="M342.2,423.7l5.8-13l5.9-13.3l6-13.6l6.2-13.9l6.3-14.2l6.4-14.5l6.6-14.8l6.7-15.1L399,296l7-15.7l7.1-15.9l7.2-16.3
    l7.3-16.5l7.5-16.8l7.6-17.1l7.7-17.4l7.9-17.7l8-18l8.1-18.3l8.3-18.6L530.5,0L301,43.3L195.9,279.9L112.3,468l-30.7,69.1
    l-8.5,19.2l-2.8,6.3l-4.1,9.3l-4.4,9.8l-3.1,6.9l-3.7,8.4l-5.1,11.4l-1.1,2.5L41.2,628l-0.4,1l-4.9,11l-0.3,0.7l-0.9,2.1l-18.8,42.3
    c11,8.3,26.3,8.1,37.2-0.3l21.2-16.5l73.4-165.3l3-6.7l183-411.9l118.2-22.3L306.4,389.5l-3,6.7L159,721.4l0.8,6.2
    c1.7,13,12.6,23.1,25.8,24l10.7,0.7l20-45.2l0.7-1.5l0.7-1.5l1.2-2.8l4-8.9l0-0.1l3.3-7.5l3.9-8.8l1.6-3.5l2.1-4.6l2.9-6.6l2.6-5.8
    l1.4-3.1l2.8-6.3l4.1-9.3l1.2-2.7l7.4-16.7l1.7-3.8l0.4-0.9l83.6-188.1L342.2,423.7z"></path>
    <polygon points="413.4,92.6 349.7,104.6 325.8,158.2 389.4,146.5 "></polygon>
    <g>
    <path d="M566.9,128.9h-74.6c-6.2,16.7-38.2,101-54.4,142.9c6.8,27.4,9,33.3,13.3,50.7s7.6,30,10.1,37.9l79.4,257.6H285.1
      c-0.2,0-60.8,152-60.8,152h361.3l39.5,140h211.6L566.9,128.9z"></path>
    </g>
  </symbol>

  <symbol version="1.1" id="mba" xmlns="http://www.w3.org/2000/svg" xmlns:xlink="http://www.w3.org/1999/xlink" x="0px" y="0px" xml:space="preserve" viewBox="0 0 941.8 928.7">
    <path d="M507.5,709.3c-25.5,6.7-52.1-5.6-63.6-29.2c-21.1,14.6-49.4,13.4-68.9-3.1c-6,120.6-9,180.9-9,180.9
    c20.4,1.7,39.5,10.4,54.1,24.6c89.8-82.8,134.8-124.2,134.8-124.2C529.3,755.3,509.5,734.8,507.5,709.3z"></path>
    <path d="M365.2,880.8c-1.8,26.1-2.8,39.1-2.8,39.1c0.2,9.6,4,11.3,11.3,5c20.1-18,30.1-27,30.1-27
    C392.5,889.4,379.2,883.6,365.2,880.8z"></path>
    <path d="M466.9,667.8l0.5,1c6,12.5,20.1,18.9,33.5,15.4l9.6-2.5l266-517.6l-56,7.3L466.9,667.8z"></path>
    <path d="M731.5,413.3l6.5-12.7l6.6-13l6.7-13.3l6.9-13.6l7-13.9l7.2-14.1l7.3-14.4l7.5-14.7l7.6-15l7.8-15.3l7.9-15.6l8.1-15.9
    l8.2-16.1l8.3-16.4l8.5-16.7l8.6-17l8.8-17.3l8.9-17.6l9.1-17.9l9.2-18.1L941.8,0L710.3,31.2L593,261.9l-93.3,183.4l-34.3,67.4
    l-9.5,18.7l-3.1,6.2l-4.6,9.1l-4.9,9.5l-3.4,6.7l-4.2,8.2l-5.7,11.1l-1.2,2.4l-8.5,16.7l-0.5,1l-5.5,10.7l-0.3,0.7l-1,2l-21,41.2
    c10.5,8.8,25.9,9.5,37.2,1.7l22.1-15.3l82-161.2l3.3-6.5L740.8,74L860,57.9L697.6,377.3l-3.3,6.5L533,700.9l0.5,6.3
    c1.1,13.1,11.3,23.8,24.5,25.3l10.7,1.2l22.4-44l0.7-1.4l0.7-1.4l1.4-2.7l4.4-8.7l0-0.1l3.7-7.3l4.4-8.6l1.7-3.4l2.3-4.5l3.3-6.4
    l2.9-5.7l1.6-3.1l3.1-6.2l4.6-9.1l1.3-2.6l8.3-16.3l1.9-3.7l0.5-0.9l93.3-183.4L731.5,413.3z"></path>
    <polygon points="820,86.3 755.8,95 729.1,147.3 793.2,138.9 "></polygon>
    <g>
    <polygon points="429.1,519.5 192.9,35.2 0,35.2 0,875.2 192,875.2 192,494.5 314,733.7 	"></polygon>
    <polygon points="709,523.9 709,875.2 901,875.2 901,138.9 	"></polygon>
    </g>
  </symbol>

  <symbol version="1.1" id="kurs" xmlns="http://www.w3.org/2000/svg" xmlns:xlink="http://www.w3.org/1999/xlink" x="0px" y="0px" xml:space="preserve" viewBox="0 0 739.7 942.8">
    <path d="M75.3,936.8c-8.4-21.7-12.7-32.6-12.7-32.6c12.2-2.2,24.8-1.6,36.7,1.8c-8.9,20.9-13.3,31.3-13.3,31.3
    C82.1,944.7,78.5,944.5,75.3,936.8 M56.2,885.9C19.3,786.8,0.9,737.3,0.9,737.3c20.9,7.7,44.4-0.4,56.1-19.4
    c17.1,15.1,42.6,16,60.8,2.2c10.5,19.5,33,29.6,54.6,24.5c-43,95.6-64.5,143.4-64.5,143.4C91.4,881.3,73.2,880.6,56.2,885.9z
      M0.4,402.4v-0.8l0-12.3l0-12.6l0-12.9l0-13.2l0-13.5l0-13.7l0-14l0-14.3l0-14.6l0-14.8l0-15.1l0-15.4l0-15.7l0-15.9l0-16.2l0-16.5
    l0-16.8l0-17.1l0-17.3l0-17.6L0.9,0l167,114.4l-0.3,224.2h0l-0.2,178.3l-0.1,65.5l0,18.2l0,6l0,8.8l0,9.3l0,6.5l0,8l0,10.8v2.3
    l0,16.2v0.9l0,10.4v0.7l0,2l0,40.1c-11.6,2.7-23.8-2.7-29.4-13.2l-11-20.5l0.2-156.6V526l0.5-390.4l-86-58.9L40.9,387l0,6.3
    l-0.4,308.2l-2.9,4.7c-6,9.7-18.2,14-28.9,10L0,712.9l0.1-42.8v-1.4v-1.4l0-2.6l0-8.4v-0.1l0-7.1l0-8.3l0-3.3v-4.4l0-6.2v-5.5l0-3
    l0-6l0-8.8V601l0-15.8v-3.6l0-0.9L0.4,402.4z M65.5,695.4l-1.5-504.1l40.5,27.5l0.3,482.8l-0.8,0.6c-9.6,7.3-23,6.8-32.1-1.2
    L65.5,695.4z"></path>
    <polygon points="381.7,488.3 265.5,361.7 450.1,99.2 663.8,99.2 "></polygon>
    <polygon points="195.5,230.4 195.5,488.3 526,922.9 739.7,922.9 "></polygon>
  </symbol>

  <symbol version="1.1" id="ordin" xmlns="http://www.w3.org/2000/svg" xmlns:xlink="http://www.w3.org/1999/xlink" x="0px" y="0px" xml:space="preserve" viewBox="0 0 772.9 923">
    <g>
    <path d="M690,184.9c-4.7,6.9-111.3,166.7-125.3,189.9c6.9,30.5,6.9,55.8,6.9,93.6c0,169.4-72.7,276.7-187.9,276.7
      c-23.9,0-46-4.6-66-13.5c-4.6,7.5-89.2,127.9-98.7,143.3c45.9,19,108.9,35.1,164.7,35.1c227.8,0,383.6-165.6,383.6-441.6
      C767.3,352.1,739.4,256.5,690,184.9z"></path>
    <path d="M194.6,508.7c-0.2-4.1,1.1-20.3,1.1-40.3C195.4,299,268.4,199,383.6,199c9.4,0,18.5,0.7,27.3,2
      c5-8.6,89.7-145.5,92.7-150.3c-37.1-10.9-77.3-16.5-120-16.5C155.8,34.2,0,192.4,0,468.4C0,560,21.4,650.2,52.6,715.5
      C60.8,704,187,519.1,194.6,508.7z"></path>
    </g>
    <path d="M570.7,117.2l-403,600.9l0.3,0.9c3.6,11,14.5,17.9,26.1,16.5l8.2-1l415.6-617.2L570.7,117.2z"></path>
    <path d="M219.4,537.7l-35.8,52l-10,14.5l-3.3,4.8l-4.8,7l-5.1,7.4l-3.6,5.2l-4.4,6.4l-5.9,8.6l-1.3,1.9l-8.9,12.9l-0.5,0.7l-5.7,8.3
    l-0.4,0.5l-1.1,1.6L106.7,701c7.7,8.5,20.4,10.8,30.6,5.5l20-10.2L243,572l3.5-5L598.3,38.8h100.5
    c-159.3,240.3-316.6,477-480.1,714.1l-0.3,5.2c-0.6,11,6.8,20.9,17.5,23.6l8.7,2.2l23.4-33.9l0.8-1.1l0.8-1.1l1.4-2.1l4.6-6.7l0-0.1
    l3.9-5.6l4.6-6.6l1.8-2.7l2.4-3.5l3.4-4.9l3-4.4l1.6-2.4l3.3-4.8l4.8-7l1.4-2l8.7-12.5l2-2.8l0.5-0.7
    C447,490.5,564.5,317.4,688.6,122.2l9.3-13.5l9.5-13.8l9.6-14L772.9,0H577.8L316.9,396.2L219.4,537.7z"></path>
    <path d="M53.3,915.2c-0.9,8,2,9.8,8.8,5.4c18.6-12.6,27.9-19,27.9-19c-8.5-8.4-18.8-14.7-30.1-18.5
    C55.5,904.5,53.3,915.2,53.3,915.2z"></path>
    <path d="M196.7,757c-21.9,2.7-42.6-10.4-49.4-31.3c-19.1,9.8-42.4,5.6-56.7-10.3c-18.3,99.2-27.4,148.8-27.4,148.8
    c16.7,3.7,31.5,13,42.1,26.4c83.6-58.5,125.3-87.8,125.3-87.8C209.7,797.6,195.5,778.4,196.7,757z"></path>
  </symbol>
  <symbol version="1.1" id="ic_email2" xmlns="http://www.w3.org/2000/svg" xmlns:xlink="http://www.w3.org/1999/xlink" x="0px" y="0px"
	 viewBox="0 0 550.795 550.795" xml:space="preserve" fill="#ecedf6">
    <g>
      <g>
        <path d="M501.613,491.782c12.381,0,23.109-4.088,32.229-12.16L377.793,323.567c-3.744,2.681-7.373,5.288-10.801,7.767
          c-11.678,8.604-21.156,15.318-28.434,20.129c-7.277,4.822-16.959,9.737-29.045,14.755c-12.094,5.024-23.361,7.528-33.813,7.528
          h-0.306h-0.306c-10.453,0-21.72-2.503-33.813-7.528c-12.093-5.018-21.775-9.933-29.045-14.755
          c-7.277-4.811-16.75-11.524-28.434-20.129c-3.256-2.387-6.867-5.006-10.771-7.809L16.946,479.622
          c9.119,8.072,19.854,12.16,32.234,12.16H501.613z"/>
        <path d="M31.047,225.299C19.37,217.514,9.015,208.598,0,198.555V435.98l137.541-137.541
          C110.025,279.229,74.572,254.877,31.047,225.299z"/>
        <path d="M520.059,225.299c-41.865,28.336-77.447,52.73-106.75,73.195l137.486,137.492V198.555
          C541.98,208.396,531.736,217.306,520.059,225.299z"/>
        <path d="M501.613,59.013H49.181c-15.784,0-27.919,5.33-36.42,15.979C4.253,85.646,0.006,98.97,0.006,114.949
          c0,12.907,5.636,26.892,16.903,41.959c11.267,15.061,23.256,26.891,35.961,35.496c6.965,4.921,27.969,19.523,63.012,43.801
          c18.917,13.109,35.368,24.535,49.505,34.395c12.05,8.396,22.442,15.667,31.022,21.701c0.985,0.691,2.534,1.799,4.59,3.269
          c2.215,1.591,5.018,3.61,8.476,6.107c6.659,4.816,12.191,8.709,16.597,11.683c4.4,2.975,9.731,6.298,15.985,9.988
          c6.249,3.685,12.143,6.456,17.675,8.299c5.533,1.842,10.655,2.766,15.367,2.766h0.306h0.306c4.711,0,9.834-0.924,15.368-2.766
          c5.531-1.843,11.42-4.608,17.674-8.299c6.248-3.69,11.572-7.02,15.986-9.988c4.406-2.974,9.938-6.866,16.598-11.683
          c3.451-2.497,6.254-4.517,8.469-6.102c2.057-1.476,3.605-2.577,4.596-3.274c6.684-4.651,17.1-11.892,31.104-21.616
          c25.482-17.705,63.01-43.764,112.742-78.281c14.957-10.447,27.453-23.054,37.496-37.803c10.025-14.749,15.051-30.22,15.051-46.408
          c0-13.525-4.873-25.098-14.598-34.737C526.461,63.829,514.932,59.013,501.613,59.013z"/>
      </g>
    </g>
  </symbol>
  <symbol version="1.1" id="ic_arrow2" xmlns="http://www.w3.org/2000/svg" xmlns:xlink="http://www.w3.org/1999/xlink" x="0px" y="0px"
    viewBox="0 0 256.1 490.7" style="enable-background:new 0 0 256.1 490.7;" xml:space="preserve">
    <path class="st0" d="M252.9,472.3L25.8,245.2L252.9,18.1c4.1-4.2,4-11-0.3-15.1c-4.1-4-10.7-4-14.8,0L3.1,237.7
    c-4.2,4.2-4.2,10.9,0,15.1l234.7,234.7c4.1,4.2,10.8,4.4,15.1,0.3c4.2-4.1,4.4-10.8,0.3-15.1C253.1,472.5,253,472.4,252.9,472.3
    L252.9,472.3z"/>
    <path d="M0,245.2c0-2.8,1.1-5.5,3.1-7.6L237.8,3c4.2-4.1,11-4,15.1,0.3c4,4.1,4,10.7,0,14.8L25.8,245.2l227.1,227.1
    c4.2,4.1,4.4,10.8,0.3,15.1c-4.1,4.2-10.8,4.4-15.1,0.3c-0.1-0.1-0.2-0.2-0.3-0.3L3.1,252.7C1.1,250.7,0,248,0,245.2z"/>
  </symbol>

</svg>